<?xml version="1.0" encoding="UTF-8"?>
<!DOCTYPE svg PUBLIC "-//W3C//DTD SVG 1.1//EN" "http://www.w3.org/Graphics/SVG/1.1/DTD/svg11.dtd">
<!-- Creator: CorelDRAW 2018 (64 Bit) -->
<svg xmlns="http://www.w3.org/2000/svg" xml:space="preserve" width="145mm" height="90mm" version="1.1" shape-rendering="geometricPrecision" text-rendering="geometricPrecision" image-rendering="optimizeQuality" fill-rule="evenodd" clip-rule="evenodd"
viewBox="0 0 145 90"
 xmlns:xlink="http://www.w3.org/1999/xlink">
 <g id="Capa_x0020_1">
  <metadata id="CorelCorpID_0Corel-Layer"/>
  <path id="cuebasNivel" fill="none" fill-rule="nonzero" stroke="black" stroke-width="0.0423" stroke-linecap="round" stroke-linejoin="round" stroke-miterlimit="10" d="M28.5324 4.5339l-1.9829 2.5381 -2.7231 -0.2115 -5.182 0 -8.0108 3.1726 -2.9082 1.8243m28.4741 -6.7418l-5.9221 2.7232 -7.2707 4.0186 -5.0497 0.5817 -4.0715 0.2907 -1.7978 2.0094 -4.3095 2.4058m45.4741 -11.58l-4.9969 3.5428 -6.7946 1.9829 -8.3811 1.7449 -14.4353 4.7589 -10.5224 4.3624m56.5781 -15.2815l-18.4011 8.1695 -11.3421 2.4059 -9.4121 3.3577 -11.527 3.8865 -7.1649 3.2519m65.5936 -21.1508l-9.2005 5.5785 -10.7076 5.7372 -9.7557 3.8335 -8.0902 1.0047 -4.944 1.9564 -10.2316 2.9875 -10.5225 4.8382 -3.437 3.8072m74.1596 -29.3995l-8.7775 6.689 -11.3156 6.2394 -9.5178 4.4681 -8.3281 2.2208 -10.1259 2.9875 -7.4292 1.9301 -6.8475 1.6391 -7.297 3.9923 -4.6003 3.7278m82.0911 -33.3917l-4.3887 2.0886 -3.3312 3.9657 -5.843 3.437 -7.7464 5.3406 -12.8225 7.6143 -7.7466 1.3483 -15.6779 3.4899 -9.2005 3.2254 -3.6485 0.1058 -10.7604 5.9487m87.3259 -36.8287l-4.4681 2.6967 -5.1555 6.9269 -7.2705 4.6796 -2.0502 1.4556m-18.0553 10.4486l-2.182 0.7597 -3.5164 2.115 -4.9175 2.3267 -2.115 -0.5817 -5.6314 -0.3436 -9.7558 2.6967 -12.7962 3.4105 -9.835 3.5162m99.3025 -40.1862l-9.8351 3.4898 -2.3266 3.2519 -1.2954 0.1322 -3.5692 6.4775 -4.2302 1.3747 -1.1632 1.6128 -3.9129 3.1461 -2.3534 1.2885m-7.9063 5.5091l-5.6548 2.9349m-3.5205 1.7972l-5.0734 2.1918 -4.0716 0 -7.3498 2.8554 -5.5256 0.7138 -4.8647 0.6345 -7.8257 0.7932 -4.8647 0.9782 -4.4152 2.1944 -7.4556 1.7714 -4.3623 3.0404m105.727 -45.8441l-3.5163 2.4588 0.0793 2.1415 -2.6967 2.5381 -7.905 5.1554 -3.1991 4.9704 -2.8554 2.2208 -4.4945 0.899 -2.8818 2.6174 -5.1555 2.6174 -3.5427 2.7495 -3.437 1.2162 -1.3748 2.3795 -5.5784 3.0933 -8.0373 3.4369 -8.1695 2.3794 -3.86 -0.3172 -11.395 0.7403 -4.3358 -0.238 -8.1166 2.8554 -11.3685 2.9611m106.6259 -47.2189l-4.6531 7.2441 -3.4106 3.9128 -1.5334 4.0187 -12.8754 9.7028 -14.9642 5.6844 -5.2084 4.891 -8.2487 5.2613 -3.622 0.3966 -10.126 3.4105 -3.0933 -0.1058 -3.3048 0.8197 -5.9751 1.031 -7.3498 0.2115 -6.9269 0.846 -16.2066 4.7589m115.377 -52.0835l-8.0637 9.3591 -10.0467 12.2411 -10.4696 5.3404 -8.328 5.843 -4.2037 3.5692 -2.8554 1.0311 -2.2208 1.8242 -6.7681 3.3841 0.1321 2.4587 -6.3717 1.1898 -4.5738 -0.3966 -8.3281 2.7232 -4.3095 -0.4496 -2.776 1.5335 -6.6095 -0.1058 -12.7962 2.5646 -17.1321 4.4151m120.5325 -56.7896l-1.7184 4.521 -12.8491 14.4883 -6.7418 6.3716 -1.3748 2.2738 -10.1259 3.5955 -6.7946 6.7154 -6.7947 3.2255 -9.2534 9.2533 -5.4992 0 -7.297 0.3173 -7.7993 1.0047 -2.9083 0.9518 -6.3187 0.8988 -11.0248 0 -9.3063 3.7279 -15.2021 3.7807m125.5294 -61.4692l-5.2084 10.2317 -8.9626 10.7868 -6.0544 7.9051 -7.8522 4.6531 -11.7914 7.2441 -7.3499 2.9347 -1.3483 3.384 -4.4946 2.4325 -4.5738 5.9221 -3.4899 1.5335 -3.86 -0.2116 -13.8008 -1.2161 -6.7682 0.7932 -6.9533 1.216 -6.5303 0.5024 -3.8865 2.0094 -7.0855 1.0046 -8.3281 3.3577 -6.2922 0.7931m129.31 -66.1752l-2.4852 9.835 -4.5209 5.6049 -4.5739 6.0545 -5.8957 5.6578 -3.5428 3.9393 -8.9097 6.2131 -1.9565 3.7806 -9.0419 3.1198 -12.5582 8.3281 -6.1337 9.174 -8.0373 0.6345 -19.3529 -1.269 -12.5581 1.269 -8.1431 2.591 -9.042 1.6127 -9.412 2.8289 -5.6578 1.1897m137.453 -70.9605l-3.8864 12.241 -6.0543 5.1025 -2.7497 6.7683 -5.0762 4.1244 -4.7324 4.2302 -11.8179 12.2673 -2.1415 1.507 -9.9144 1.4012 -0.5024 1.4277 -6.5567 4.7325 -2.7232 2.5116 -6.7681 6.9533 -5.5521 3.1462 -4.4416 0.2115 -1.93 -1.4012 -5.7372 0.2908 -6.2659 0.8196 -8.8303 -1.0047 -12.7169 1.7185 -7.3763 2.1151 -6.9533 1.0046 -13.2193 3.9394m135.576 -61.2313l-4.6531 6.3188 -5.1819 6.3452 -0.5288 3.1197 -10.2053 9.2006 -11.2627 9.3327 -5.2876 3.4105 -12.7169 4.2831 -4.9176 3.1197 -1.9828 3.6749 -4.6532 5.2084 -6.9532 2.8554 -5.2878 1.2425 -1.5069 -0.2644 0.6081 -1.2426 -1.1634 -1.1632 -3.7541 1.0574 -5.182 0 -7.1383 0.6346 -19.538 0.5552 -12.2409 3.4635 -13.4836 3.6748m136.2634 -57.2918l-3.1198 3.1726 -2.2473 6.7153 -1.2426 0 -3.1726 4.2565 -10.2845 9.465 -0.8724 1.6391 -3.067 2.7232 -1.5863 0.3966 -11.2362 5.4462 -9.1741 2.5118 -3.9394 2.2736 -2.8817 3.913 -5.2613 4.9703 -3.2254 1.6392 -3.3842 2.6703 -1.5333 0.0793 -6.7683 1.9564 -3.3841 -2.115 -25.5924 2.3001 -1.7713 0.8196 -2.0622 0.2115 -4.2566 1.1898 -6.5039 -0.7139 -18.0309 5.4728m133.1964 -48.0121l-6.9532 7.9315 -6.4774 3.437 -2.4587 3.7278 -5.6844 2.0622 -3.1461 3.7013 -4.8117 1.1898 -0.0793 -0.7932 -15.255 4.9175 -14.6733 14.1446 -3.9393 0.8725 -2.2473 1.0839 -5.8693 1.1897 -2.4588 -0.5023 -1.7977 -0.6874 -25.5132 3.5427 -7.6406 1.56 -6.0809 -0.291 -4.1243 2.2474m117.5714 -41.4025l-9.2534 8.3809 -7.059 4.944 -4.6268 2.4059 -5.8165 1.1104 -7.9315 3.6485 -0.7931 -0.2379 -13.5629 6.4245 -1.9564 3.2519 -4.7854 4.3359 -3.9393 0.4759 -2.3266 2.3794 -5.8693 1.4805 -2.2472 0.0794 -2.4059 -0.5552 -4.4681 0.9254 -15.7044 2.1678m93.7241 -34.2904l-9.6501 5.3141 -4.2037 4.5738 -8.5396 3.2254 -8.1694 1.8507 -12.7433 3.4634 -5.6843 4.3095 -2.353 3.0933 -7.1912 4.3359 -4.0715 2.591m63.3727 -27.0994l-1.6656 0 -2.8553 3.0404 -6.3452 1.8243 -0.8725 2.2473 -11.1041 4.1772 -5.2083 1.2162 -20.4898 6.874 -7.6407 7.5349m56.631 -21.6266l-4.2566 2.7761 -10.7868 3.4898 -5.2084 1.9036 -5.8164 2.2472 -7.4028 2.1944 -13.3513 5.2084 -5.8958 3.6485m53.2997 -16.6827l-11.4742 4.7589 -2.1944 0 -5.4991 2.9612 -1.5863 0.2644 -2.4853 1.0311 -4.7589 1.1632 -18.1896 6.028m46.5844 -12.6111l-13.1663 4.9968 -6.2924 2.6703 -1.6391 0.4495 -3.2784 1.3219 -0.7402 0.8724 -7.2706 2.4853m32.8894 -8.8305l-5.182 0.9783 -2.1415 2.4323 -9.0947 3.7806 -0.7404 -0.4229 -1.1368 0.7931 -0.7402 0 -2.8554 2.1151m22.7105 -6.1866l-5.7371 6.1601"/>
  <polyline id="permetroterreno" fill="none" fill-rule="nonzero" stroke="black" stroke-width="0.0847" stroke-linecap="round" stroke-linejoin="round" stroke-miterlimit="10" points="143.2813,7.1249 143.2813,54.2646 143.2813,87.8414 5.2995,87.8414 5.2995,4.772 143.2813,7.1249 "/>
  <g id="rosaVientos">
   <g>
    <polygon fill="none" fill-rule="nonzero" stroke="black" stroke-width="0.1" stroke-linecap="round" stroke-linejoin="round" stroke-miterlimit="10" points="93.2681,29.7698 93.2681,32.616 92.7687,32.1162 "/>
    <polygon fill="none" fill-rule="nonzero" stroke="black" stroke-width="0.1" stroke-linecap="round" stroke-linejoin="round" stroke-miterlimit="10" points="93.2681,29.7698 93.2681,32.616 93.7679,32.1162 "/>
   </g>
   <g>
    <polygon fill="none" fill-rule="nonzero" stroke="black" stroke-width="0.1" stroke-linecap="round" stroke-linejoin="round" stroke-miterlimit="10" points="96.1143,32.616 93.2681,32.616 93.7679,32.1166 "/>
    <polygon fill="none" fill-rule="nonzero" stroke="black" stroke-width="0.1" stroke-linecap="round" stroke-linejoin="round" stroke-miterlimit="10" points="96.1143,32.616 93.2681,32.616 93.7679,33.1158 "/>
   </g>
   <g>
    <polygon fill="none" fill-rule="nonzero" stroke="black" stroke-width="0.1" stroke-linecap="round" stroke-linejoin="round" stroke-miterlimit="10" points="93.2681,35.4622 93.2681,32.616 93.7675,33.1158 "/>
    <polygon fill="none" fill-rule="nonzero" stroke="black" stroke-width="0.1" stroke-linecap="round" stroke-linejoin="round" stroke-miterlimit="10" points="93.2681,35.4622 93.2681,32.616 92.7683,33.1158 "/>
   </g>
   <g>
    <polygon fill="none" fill-rule="nonzero" stroke="black" stroke-width="0.1" stroke-linecap="round" stroke-linejoin="round" stroke-miterlimit="10" points="90.4219,32.616 93.2681,32.616 92.7684,33.1154 "/>
    <polygon fill="none" fill-rule="nonzero" stroke="black" stroke-width="0.1" stroke-linecap="round" stroke-linejoin="round" stroke-miterlimit="10" points="90.4219,32.616 93.2681,32.616 92.7684,32.1162 "/>
   </g>
   <polygon fill="black" fill-rule="nonzero" stroke="black" stroke-width="0.1" stroke-linecap="round" stroke-linejoin="round" stroke-miterlimit="10" points="97.9023,27.9818 93.2681,32.616 93.2684,31.9095 "/>
   <polygon fill="white" fill-rule="nonzero" stroke="black" stroke-width="0.1" stroke-linecap="round" stroke-linejoin="round" stroke-miterlimit="10" points="97.9023,27.9818 93.2681,32.616 93.9749,32.616 "/>
   <polygon fill="black" fill-rule="nonzero" stroke="black" stroke-width="0.1" stroke-linecap="round" stroke-linejoin="round" stroke-miterlimit="10" points="91.2556,34.6286 93.2681,32.616 93.2678,33.3225 "/>
   <polygon fill="white" fill-rule="nonzero" stroke="black" stroke-width="0.1" stroke-linecap="round" stroke-linejoin="round" stroke-miterlimit="10" points="91.2556,34.6286 93.2681,32.616 92.5613,32.6159 "/>
   <polygon fill="black" fill-rule="nonzero" stroke="black" stroke-width="0.1" stroke-linecap="round" stroke-linejoin="round" stroke-miterlimit="10" points="95.2807,34.6286 93.2681,32.616 93.9746,32.6163 "/>
   <polygon fill="white" fill-rule="nonzero" stroke="black" stroke-width="0.1" stroke-linecap="round" stroke-linejoin="round" stroke-miterlimit="10" points="95.2807,34.6286 93.2681,32.616 93.2681,33.3228 "/>
   <polygon fill="black" fill-rule="nonzero" stroke="black" stroke-width="0.1" stroke-linecap="round" stroke-linejoin="round" stroke-miterlimit="10" points="91.2556,30.6034 93.2681,32.616 92.5616,32.6157 "/>
   <polygon fill="white" fill-rule="nonzero" stroke="black" stroke-width="0.1" stroke-linecap="round" stroke-linejoin="round" stroke-miterlimit="10" points="91.2556,30.6034 93.2681,32.616 93.2682,31.9092 "/>
  </g>
  <g id="casa">
   <polygon id="Losa_x0020_" fill="#C8C9C9" stroke="#373435" stroke-width="0.0099" stroke-miterlimit="22.9256" points="56.588,33.6989 57.7358,36.8548 58.2248,36.6769 58.51,37.4605 59.4502,37.1182 58.3586,34.1194 62.045,32.7777 62.8517,34.9941 64.5856,34.3617 63.697,31.9205 65.7098,31.1893 66.4281,33.1631 68.6215,32.3756 67.2285,28.5483 67.7428,28.3576 66.3495,24.5297 64.8369,25.0803 65.6688,27.3848 61.5526,28.8779 62.5211,31.5394 "/>
   <polygon fill="white" fill-rule="nonzero" stroke="black" stroke-width="0.025" stroke-miterlimit="22.9256" points="63.0476,32.7935 62.9947,32.7936 62.9944,32.635 "/>
   <polyline fill="none" fill-rule="nonzero" stroke="#C7C8CA" stroke-width="0.025" stroke-linecap="round" stroke-miterlimit="10" points="63.0476,32.7935 62.9947,32.7936 62.9944,32.635 63.0476,32.7935 "/>
   <line fill="none" fill-rule="nonzero" stroke="black" stroke-width="0.025" stroke-linecap="round" stroke-linejoin="round" stroke-miterlimit="10" x1="59.8374" y1="32.5161" x2="60.1823" y2= "33.4674" />
   <polyline fill="none" fill-rule="nonzero" stroke="black" stroke-width="0.025" stroke-linecap="round" stroke-linejoin="round" stroke-miterlimit="10" points="57.8117,34.981 57.7587,34.8489 57.6798,35.1398 57.9443,35.3245 57.8913,35.1925 58.1027,35.1129 58.0231,34.9014 57.8117,34.981 "/>
   <polyline fill="none" fill-rule="nonzero" stroke="black" stroke-width="0.025" stroke-linecap="round" stroke-linejoin="round" stroke-miterlimit="10" points="63.0476,32.7935 62.9944,32.635 63.2591,32.8196 63.1802,33.137 63.1272,32.9784 62.9157,33.058 62.8361,32.8466 63.0476,32.7935 "/>
   <polygon fill="white" fill-rule="nonzero" stroke="black" stroke-width="0.025" stroke-miterlimit="22.9256" points="67.0903,31.3221 67.1309,31.2881 67.0291,31.1665 "/>
   <polyline fill="none" fill-rule="nonzero" stroke="#C7C8CA" stroke-width="0.025" stroke-linecap="round" stroke-miterlimit="10" points="67.0903,31.3221 67.1309,31.2881 67.0291,31.1665 67.0903,31.3221 "/>
   <polyline fill="none" fill-rule="nonzero" stroke="black" stroke-width="0.025" stroke-linecap="round" stroke-linejoin="round" stroke-miterlimit="10" points="67.0903,31.3221 67.0291,31.1665 66.9451,31.478 67.2095,31.6704 67.1482,31.5149 67.3614,31.4399 67.2865,31.2268 67.0903,31.3221 "/>
   <polygon fill="white" fill-rule="nonzero" stroke="black" stroke-width="0.025" stroke-miterlimit="22.9256" points="65.979,26.2114 65.9463,26.1697 65.8216,26.2677 "/>
   <polyline fill="none" fill-rule="nonzero" stroke="#C7C8CA" stroke-width="0.025" stroke-linecap="round" stroke-miterlimit="10" points="65.979,26.2114 65.9463,26.1697 65.8216,26.2677 65.979,26.2114 "/>
   <polyline fill="none" fill-rule="nonzero" stroke="black" stroke-width="0.025" stroke-linecap="round" stroke-linejoin="round" stroke-miterlimit="10" points="65.979,26.2114 65.8216,26.2677 66.1304,26.3614 66.3309,26.1031 66.1735,26.1595 66.1052,25.9441 65.8899,26.0124 65.979,26.2114 "/>
   <polygon fill="white" fill-rule="nonzero" stroke="black" stroke-width="0.025" stroke-miterlimit="22.9256" points="63.8421,29.062 63.8094,29.0203 63.6846,29.1183 "/>
   <polyline fill="none" fill-rule="nonzero" stroke="#C7C8CA" stroke-width="0.025" stroke-linecap="round" stroke-miterlimit="10" points="63.8421,29.062 63.8094,29.0203 63.6846,29.1183 63.8421,29.062 "/>
   <polyline fill="none" fill-rule="nonzero" stroke="black" stroke-width="0.025" stroke-linecap="round" stroke-linejoin="round" stroke-miterlimit="10" points="63.8421,29.062 63.6846,29.1183 63.9934,29.212 64.194,28.9537 64.0366,29.0101 63.9683,28.7947 63.753,28.8629 63.8421,29.062 "/>
   <polygon fill="none" stroke="#373435" stroke-width="0.0299" stroke-miterlimit="22.9256" points="57.0109,33.3418 56.324,33.5918 57.6031,37.106 58.1108,36.9213 58.396,37.7049 59.5155,37.2975 59.4502,37.1182 58.51,37.4605 58.2248,36.6769 57.7171,36.8615 56.5685,33.7058 57.0773,33.5241 "/>
   <polygon fill="none" stroke="#373435" stroke-width="0.0299" stroke-miterlimit="22.9256" points="66.4807,24.2792 64.5694,24.9748 65.4071,27.2763 61.4873,28.6987 61.5526,28.8779 65.6688,27.3848 64.8369,25.0803 66.3268,24.538 67.7451,28.3637 67.9413,28.2921 "/>
   <polygon id="Entrada" fill="none" stroke="#373435" stroke-width="0.0299" stroke-miterlimit="22.9256" points="64.7303,27.3155 61.9611,28.3234 62.0263,28.5026 64.7955,27.4947 "/>
   <polygon fill="none" stroke="#373435" stroke-width="0.0299" stroke-miterlimit="22.9256" points="65.7098,31.1893 63.6975,31.9299 64.5856,34.3617 62.8517,34.9941 62.9233,35.1909 64.8528,34.4886 63.9651,32.0353 65.5733,31.442 66.2985,33.4345 68.6938,32.5642 68.6246,32.3745 66.4297,33.1671 "/>
   <path fill="none" stroke="#373435" stroke-width="0.05" stroke-miterlimit="22.9256" d="M60.4567 39.3314l-1.8592 -5.1082 3.3311 -1.2124 1.8592 5.1082 -3.3311 1.2124zm-0.1162 0.233l-1.9819 -5.445 3.6862 -1.3417 1.9819 5.4451 -3.6862 1.3416z"/>
   <line fill="none" fill-rule="nonzero" stroke="black" stroke-width="0.0423" stroke-linecap="round" stroke-linejoin="round" stroke-miterlimit="10" x1="62.865" y1="35.5935" x2="59.509" y2= "36.8142" />
   <polygon fill="black" fill-rule="nonzero" stroke="black" stroke-width="0.0199" stroke-linecap="round" stroke-linejoin="round" stroke-miterlimit="10" points="61.7306,37.3929 61.8891,37.3398 61.7045,37.6044 61.3872,37.5255 61.5457,37.4724 61.4661,37.2611 61.6775,37.1813 "/>
   <line fill="none" stroke="black" stroke-width="0.0199" stroke-miterlimit="22.9256" x1="61.7247" y1="33.0977" x2="63.5839" y2= "38.2059" />
   <line fill="none" stroke="black" stroke-width="0.0199" stroke-miterlimit="22.9256" x1="61.5148" y1="33.1741" x2="63.374" y2= "38.2823" />
   <line fill="none" stroke="black" stroke-width="0.0199" stroke-miterlimit="22.9256" x1="61.3049" y1="33.2505" x2="63.1642" y2= "38.3587" />
   <line fill="none" stroke="black" stroke-width="0.0199" stroke-miterlimit="22.9256" x1="61.0951" y1="33.3269" x2="62.9543" y2= "38.4351" />
   <line fill="none" stroke="black" stroke-width="0.0199" stroke-miterlimit="22.9256" x1="60.8852" y1="33.4033" x2="62.7444" y2= "38.5115" />
   <line fill="none" stroke="black" stroke-width="0.0199" stroke-miterlimit="22.9256" x1="60.6754" y1="33.4797" x2="62.5346" y2= "38.5879" />
   <line fill="none" stroke="black" stroke-width="0.0199" stroke-miterlimit="22.9256" x1="60.4655" y1="33.5561" x2="62.3247" y2= "38.6642" />
   <line fill="none" stroke="black" stroke-width="0.0199" stroke-miterlimit="22.9256" x1="60.2556" y1="33.6324" x2="62.1149" y2= "38.7406" />
   <line fill="none" stroke="black" stroke-width="0.0199" stroke-miterlimit="22.9256" x1="60.0458" y1="33.7088" x2="61.905" y2= "38.817" />
   <line fill="none" stroke="black" stroke-width="0.0199" stroke-miterlimit="22.9256" x1="59.8359" y1="33.7852" x2="61.6951" y2= "38.8934" />
   <line fill="none" stroke="black" stroke-width="0.0199" stroke-miterlimit="22.9256" x1="59.626" y1="33.8616" x2="61.4853" y2= "38.9698" />
   <line fill="none" stroke="black" stroke-width="0.0199" stroke-miterlimit="22.9256" x1="59.4162" y1="33.938" x2="61.2754" y2= "39.0462" />
   <line fill="none" stroke="black" stroke-width="0.0199" stroke-miterlimit="22.9256" x1="59.2063" y1="34.0144" x2="61.0655" y2= "39.1225" />
   <line fill="none" stroke="black" stroke-width="0.0199" stroke-miterlimit="22.9256" x1="58.9965" y1="34.0907" x2="60.8557" y2= "39.1989" />
   <line fill="none" stroke="black" stroke-width="0.0199" stroke-miterlimit="22.9256" x1="58.7866" y1="34.1671" x2="60.6458" y2= "39.2753" />
   <polygon fill="black" fill-rule="nonzero" stroke="black" stroke-width="0.0199" stroke-linecap="round" stroke-linejoin="round" stroke-miterlimit="10" points="60.874,35.0395 61.0296,34.9782 60.7181,34.8942 60.5257,35.1586 60.6813,35.0974 60.7561,35.3104 60.9693,35.2356 "/>
   <path fill="none" stroke="#373435" stroke-width="0.05" stroke-miterlimit="22.9256" d="M62.2875 31.4212l-5.1082 1.8592 -1.2124 -3.331 5.1082 -1.8593 1.2124 3.3311zm0.2331 0.1163l-5.4451 1.9818 -1.3417 -3.6862 5.4451 -1.9818 1.3417 3.6862z"/>
   <line fill="none" fill-rule="nonzero" stroke="black" stroke-width="0.0423" stroke-linecap="round" stroke-linejoin="round" stroke-miterlimit="10" x1="58.5497" y1="29.0129" x2="59.7703" y2= "32.369" />
   <polygon fill="black" fill-rule="nonzero" stroke="black" stroke-width="0.0199" stroke-linecap="round" stroke-linejoin="round" stroke-miterlimit="10" points="60.349,30.1473 60.2959,29.9888 60.5605,30.1734 60.4816,30.4908 60.4285,30.3322 60.2172,30.4118 60.1375,30.2005 "/>
   <line fill="none" stroke="black" stroke-width="0.0199" stroke-miterlimit="22.9256" x1="56.0539" y1="30.1533" x2="61.1621" y2= "28.294" />
   <line fill="none" stroke="black" stroke-width="0.0199" stroke-miterlimit="22.9256" x1="56.1302" y1="30.3631" x2="61.2384" y2= "28.5039" />
   <line fill="none" stroke="black" stroke-width="0.0199" stroke-miterlimit="22.9256" x1="56.2066" y1="30.573" x2="61.3148" y2= "28.7138" />
   <line fill="none" stroke="black" stroke-width="0.0199" stroke-miterlimit="22.9256" x1="56.283" y1="30.7828" x2="61.3912" y2= "28.9236" />
   <line fill="none" stroke="black" stroke-width="0.0199" stroke-miterlimit="22.9256" x1="56.3594" y1="30.9927" x2="61.4676" y2= "29.1335" />
   <line fill="none" stroke="black" stroke-width="0.0199" stroke-miterlimit="22.9256" x1="56.4358" y1="31.2026" x2="61.544" y2= "29.3433" />
   <line fill="none" stroke="black" stroke-width="0.0199" stroke-miterlimit="22.9256" x1="56.5122" y1="31.4124" x2="61.6204" y2= "29.5532" />
   <line fill="none" stroke="black" stroke-width="0.0199" stroke-miterlimit="22.9256" x1="56.5886" y1="31.6223" x2="61.6967" y2= "29.7631" />
   <line fill="none" stroke="black" stroke-width="0.0199" stroke-miterlimit="22.9256" x1="56.6649" y1="31.8322" x2="61.7731" y2= "29.9729" />
   <line fill="none" stroke="black" stroke-width="0.0199" stroke-miterlimit="22.9256" x1="56.7413" y1="32.042" x2="61.8495" y2= "30.1828" />
   <line fill="none" stroke="black" stroke-width="0.0199" stroke-miterlimit="22.9256" x1="56.8177" y1="32.2519" x2="61.9259" y2= "30.3927" />
   <line fill="none" stroke="black" stroke-width="0.0199" stroke-miterlimit="22.9256" x1="56.8941" y1="32.4617" x2="62.0023" y2= "30.6025" />
   <line fill="none" stroke="black" stroke-width="0.0199" stroke-miterlimit="22.9256" x1="56.9705" y1="32.6716" x2="62.0787" y2= "30.8124" />
   <line fill="none" stroke="black" stroke-width="0.0199" stroke-miterlimit="22.9256" x1="57.0469" y1="32.8815" x2="62.155" y2= "31.0222" />
   <line fill="none" stroke="black" stroke-width="0.0199" stroke-miterlimit="22.9256" x1="57.1232" y1="33.0913" x2="62.2314" y2= "31.2321" />
   <polygon fill="black" fill-rule="nonzero" stroke="black" stroke-width="0.0199" stroke-linecap="round" stroke-linejoin="round" stroke-miterlimit="10" points="57.9956,31.0039 57.9343,30.8483 57.8503,31.1598 58.1147,31.3522 58.0535,31.1967 58.2665,31.1218 58.1918,30.9086 "/>
   <polygon fill="#C7C8CA" fill-rule="nonzero" points="67.6458,29.7032 67.5135,29.7298 67.5129,29.3068 "/>
   <polyline fill="none" fill-rule="nonzero" stroke="#C7C8CA" stroke-width="0.0046" stroke-linecap="round" stroke-miterlimit="10" points="67.6458,29.7032 67.5135,29.7298 67.5129,29.3068 67.6458,29.7032 "/>
   <path id="cocheraLiving" fill="white" stroke="#373435" stroke-width="0.05" stroke-miterlimit="22.9256" d="M68.9914 33.3918l-3.3668 -9.2502 8.7522 -3.1855 3.3667 9.2502 -8.7521 3.1855zm-1.5853 -4.9082l-1.5426 -4.2382 8.397 -3.0562 1.5426 4.2382 -8.397 3.0562zm1.7016 4.6751l-1.6403 -4.5066 8.397 -3.0563 1.6402 4.5067 -8.3969 3.0562z"/>
   <g>
    <line fill="none" fill-rule="nonzero" stroke="black" stroke-width="0.0762" stroke-miterlimit="22.9256" x1="76.5704" y1="27.9069" x2="68.308" y2= "30.9134" />
   </g>
   <g>
    <polygon fill="#373435" fill-rule="nonzero" points="73.1137,30.3882 73.2721,30.3347 73.08,30.5787 72.77,30.52 72.9284,30.4665 72.8578,30.2801 73.0693,30.2007 "/>
    <polygon id="1" fill="none" fill-rule="nonzero" stroke="black" stroke-width="0.0762" stroke-miterlimit="22.9256" points="73.1137,30.3882 73.2721,30.3347 73.08,30.5787 72.77,30.52 72.9284,30.4665 72.8578,30.2801 73.0693,30.2007 "/>
   </g>
   <line fill="none" stroke="black" stroke-width="0.025" stroke-miterlimit="22.9256" x1="70.6338" y1="27.4996" x2="72.274" y2= "32.0062" />
   <line fill="none" stroke="black" stroke-width="0.025" stroke-miterlimit="22.9256" x1="70.4239" y1="27.576" x2="72.0642" y2= "32.0826" />
   <line fill="none" stroke="black" stroke-width="0.025" stroke-miterlimit="22.9256" x1="70.214" y1="27.6524" x2="71.8543" y2= "32.159" />
   <line fill="none" stroke="black" stroke-width="0.025" stroke-miterlimit="22.9256" x1="70.0042" y1="27.7287" x2="71.6445" y2= "32.2354" />
   <line fill="none" stroke="black" stroke-width="0.025" stroke-miterlimit="22.9256" x1="69.7943" y1="27.8051" x2="71.4346" y2= "32.3118" />
   <line fill="none" stroke="black" stroke-width="0.025" stroke-miterlimit="22.9256" x1="69.5844" y1="27.8815" x2="71.2247" y2= "32.3882" />
   <line fill="none" stroke="black" stroke-width="0.025" stroke-miterlimit="22.9256" x1="69.3746" y1="27.9579" x2="71.0149" y2= "32.4646" />
   <line fill="none" stroke="black" stroke-width="0.025" stroke-miterlimit="22.9256" x1="69.1647" y1="28.0343" x2="70.805" y2= "32.5409" />
   <line fill="none" stroke="black" stroke-width="0.025" stroke-miterlimit="22.9256" x1="68.9549" y1="28.1107" x2="70.5951" y2= "32.6173" />
   <line fill="none" stroke="black" stroke-width="0.025" stroke-miterlimit="22.9256" x1="68.745" y1="28.1871" x2="70.3853" y2= "32.6937" />
   <line fill="none" stroke="black" stroke-width="0.025" stroke-miterlimit="22.9256" x1="68.5351" y1="28.2634" x2="70.1754" y2= "32.7701" />
   <line fill="none" stroke="black" stroke-width="0.025" stroke-miterlimit="22.9256" x1="68.3253" y1="28.3398" x2="69.9655" y2= "32.8465" />
   <line fill="none" stroke="black" stroke-width="0.025" stroke-miterlimit="22.9256" x1="68.1154" y1="28.4162" x2="69.7557" y2= "32.9229" />
   <line fill="none" stroke="black" stroke-width="0.025" stroke-miterlimit="22.9256" x1="67.9055" y1="28.4926" x2="69.5458" y2= "32.9992" />
   <line fill="none" stroke="black" stroke-width="0.025" stroke-miterlimit="22.9256" x1="67.6957" y1="28.569" x2="69.336" y2= "33.0756" />
   <g>
    <polygon fill="#373435" fill-rule="nonzero" points="72.358,28.3119 72.5137,28.2511 72.2097,28.1877 72.01,28.4319 72.1657,28.3711 72.2315,28.5592 72.4445,28.4841 "/>
    <polygon id="1" fill="none" fill-rule="nonzero" stroke="black" stroke-width="0.0762" stroke-miterlimit="22.9256" points="72.358,28.3119 72.5137,28.2511 72.2097,28.1877 72.01,28.4319 72.1657,28.3711 72.2315,28.5592 72.4445,28.4841 "/>
   </g>
   <line fill="none" stroke="black" stroke-width="0.025" stroke-miterlimit="22.9256" x1="73.7939" y1="26.3494" x2="75.4342" y2= "30.856" />
   <line fill="none" stroke="black" stroke-width="0.025" stroke-miterlimit="22.9256" x1="73.584" y1="26.4258" x2="75.2243" y2= "30.9324" />
   <line fill="none" stroke="black" stroke-width="0.025" stroke-miterlimit="22.9256" x1="73.3742" y1="26.5022" x2="75.0145" y2= "31.0088" />
   <line fill="none" stroke="black" stroke-width="0.025" stroke-miterlimit="22.9256" x1="73.1643" y1="26.5785" x2="74.8046" y2= "31.0852" />
   <line fill="none" stroke="black" stroke-width="0.025" stroke-miterlimit="22.9256" x1="72.9545" y1="26.6549" x2="74.5947" y2= "31.1616" />
   <line fill="none" stroke="black" stroke-width="0.025" stroke-miterlimit="22.9256" x1="72.7446" y1="26.7313" x2="74.3849" y2= "31.238" />
   <line fill="none" stroke="black" stroke-width="0.025" stroke-miterlimit="22.9256" x1="72.5347" y1="26.8077" x2="74.175" y2= "31.3144" />
   <line fill="none" stroke="black" stroke-width="0.025" stroke-miterlimit="22.9256" x1="72.3249" y1="26.8841" x2="73.9651" y2= "31.3907" />
   <line fill="none" stroke="black" stroke-width="0.025" stroke-miterlimit="22.9256" x1="72.115" y1="26.9605" x2="73.7553" y2= "31.4671" />
   <line fill="none" stroke="black" stroke-width="0.025" stroke-miterlimit="22.9256" x1="71.9051" y1="27.0369" x2="73.5454" y2= "31.5435" />
   <line fill="none" stroke="black" stroke-width="0.025" stroke-miterlimit="22.9256" x1="71.6953" y1="27.1132" x2="73.3356" y2= "31.6199" />
   <line fill="none" stroke="black" stroke-width="0.025" stroke-miterlimit="22.9256" x1="71.4854" y1="27.1896" x2="73.1257" y2= "31.6963" />
   <line fill="none" stroke="black" stroke-width="0.025" stroke-miterlimit="22.9256" x1="71.2755" y1="27.266" x2="72.9158" y2= "31.7727" />
   <line fill="none" stroke="black" stroke-width="0.025" stroke-miterlimit="22.9256" x1="71.0657" y1="27.3424" x2="72.706" y2= "31.849" />
   <line fill="none" stroke="black" stroke-width="0.025" stroke-miterlimit="22.9256" x1="70.8558" y1="27.4188" x2="72.4961" y2= "31.9254" />
   <line fill="none" stroke="black" stroke-width="0.025" stroke-miterlimit="22.9256" x1="75.8918" y1="25.5858" x2="77.5321" y2= "30.0925" />
   <line fill="none" stroke="black" stroke-width="0.025" stroke-miterlimit="22.9256" x1="75.682" y1="25.6622" x2="77.3223" y2= "30.1689" />
   <line fill="none" stroke="black" stroke-width="0.025" stroke-miterlimit="22.9256" x1="75.4721" y1="25.7386" x2="77.1124" y2= "30.2452" />
   <line fill="none" stroke="black" stroke-width="0.025" stroke-miterlimit="22.9256" x1="75.2622" y1="25.815" x2="76.9025" y2= "30.3216" />
   <line fill="none" stroke="black" stroke-width="0.025" stroke-miterlimit="22.9256" x1="75.0524" y1="25.8914" x2="76.6927" y2= "30.398" />
   <line fill="none" stroke="black" stroke-width="0.025" stroke-miterlimit="22.9256" x1="74.8425" y1="25.9677" x2="76.4828" y2= "30.4744" />
   <line fill="none" stroke="black" stroke-width="0.025" stroke-miterlimit="22.9256" x1="74.6326" y1="26.0441" x2="76.2729" y2= "30.5508" />
   <line fill="none" stroke="black" stroke-width="0.025" stroke-miterlimit="22.9256" x1="74.4228" y1="26.1205" x2="76.0631" y2= "30.6272" />
   <line fill="none" stroke="black" stroke-width="0.025" stroke-miterlimit="22.9256" x1="74.2129" y1="26.1969" x2="75.8532" y2= "30.7035" />
   <line fill="none" stroke="black" stroke-width="0.025" stroke-miterlimit="22.9256" x1="74.0031" y1="26.2733" x2="75.6433" y2= "30.7799" />
   <line fill="none" fill-rule="nonzero" stroke="black" stroke-width="0.025" stroke-linecap="round" stroke-linejoin="round" stroke-miterlimit="10" x1="62.5206" y1="31.5375" x2="63.7001" y2= "31.929" />
   <line fill="none" fill-rule="nonzero" stroke="black" stroke-width="0.025" stroke-linecap="round" stroke-linejoin="round" stroke-miterlimit="10" x1="67.2285" y1="28.5483" x2="65.7098" y2= "31.1894" />
   <line fill="none" stroke="#373435" stroke-width="0.0199" stroke-miterlimit="22.9256" x1="65.8635" y1="24.2454" x2="75.8031" y2= "25.4274" />
   <line fill="none" stroke="#373435" stroke-width="0.0199" stroke-miterlimit="22.9256" x1="67.4061" y1="28.4836" x2="74.2605" y2= "21.1892" />
  </g>
 </g>
</svg>
