<?xml version="1.0" encoding="UTF-8"?>
<!DOCTYPE svg PUBLIC "-//W3C//DTD SVG 1.1//EN" "http://www.w3.org/Graphics/SVG/1.1/DTD/svg11.dtd">
<!-- Creator: CorelDRAW 2018 (64 Bit) -->
<svg xmlns="http://www.w3.org/2000/svg" xml:space="preserve" width="148mm" height="85mm" version="1.1" shape-rendering="geometricPrecision" text-rendering="geometricPrecision" image-rendering="optimizeQuality" fill-rule="evenodd" clip-rule="evenodd"
viewBox="0 0 148 85"
 xmlns:xlink="http://www.w3.org/1999/xlink">
 <g id="Capa_x0020_1">
  <metadata id="CorelCorpID_0Corel-Layer"/>
  <g>
   <path fill="none" fill-rule="nonzero" stroke="black" stroke-width="0.0762" stroke-miterlimit="22.9256" d="M92.2817 81.2482l0 -2.576 1.104 0 0.3681 0.1472 0.147 0.1104 0.1104 0.2577 0 0.3679 -0.1104 0.2208 -0.147 0.1472 -0.3681 0.1104 -1.104 0m2.576 -1.3616l0 2.576 1.4719 0m0.6257 0l0.9935 -2.576 0.9567 2.576m-1.5824 -0.8463l1.2144 0m1.104 0.8463l0 -2.576 1.7296 2.576 0 -2.576m1.8399 0l0 2.576m-0.8463 -2.576l1.6926 0m0.5153 2.576l0.9567 -2.576 0.9936 2.576m-1.5824 -0.8463l1.2144 0m4.5262 -0.4785l0.3681 0.1104 0.1472 0.1104 0.1104 0.2577 0 0.3678 -0.1104 0.2577 -0.1472 0.1104 -0.3681 0.1104 -1.1039 0 0 -2.576 1.1039 0 0.3681 0.1472 0.1472 0.1104 0.1104 0.2577 0 0.2208 -0.1104 0.2575 -0.1472 0.1104 -0.3681 0.1472 -1.1039 0m2.5759 1.3248l0.9936 -2.576 0.9936 2.576m-1.6191 -0.8463l1.251 0m2.3184 -1.7297l0 1.9871 -0.1104 0.3681 -0.1471 0.1104 -0.2208 0.1104 -0.2577 0 -0.2576 -0.1104 -0.1104 -0.1104 -0.1104 -0.3681 0 -0.2574m1.9505 0.8463l0.9935 -2.576 0.9567 2.576m-1.5824 -0.8463l1.2144 0m5.7775 -1.2144l0.2576 -0.1473 0.3679 -0.368 0 2.576m1.472 -1.6928l-0.1472 0.1104 0.1472 0.1104 0.1104 -0.1104 -0.1104 -0.1104m0 1.472l-0.1472 0.1104 0.1472 0.1104 0.1104 -0.1104 -0.1104 -0.1104m1.6928 -1.8399l0.2575 -0.1473 0.368 -0.368 0 2.576m2.0607 -2.576l-0.3678 0.1472 -0.2208 0.3681 -0.1473 0.5887 0 0.368 0.1473 0.6255 0.2208 0.3681 0.3678 0.1104 0.2577 0 0.368 -0.1104 0.2575 -0.3681 0.1104 -0.6255 0 -0.368 -0.1104 -0.5887 -0.2575 -0.3681 -0.368 -0.1472 -0.2577 0m2.4656 0l-0.368 0.1472 -0.2575 0.3681 -0.1104 0.5887 0 0.368 0.1104 0.6255 0.2575 0.3681 0.368 0.1104 0.2577 0 0.3678 -0.1104 0.2208 -0.3681 0.1473 -0.6255 0 -0.368 -0.1473 -0.5887 -0.2208 -0.3681 -0.3678 -0.1472 -0.2577 0m-14.3133 -9.9251l17.8476 0m0 1.0302l-18.8779 0m20.2762 -32.6405l0 -3.0543m-0.4048 3.0543l0 -3.0543m-0.4049 3.0543l0 -3.0543m-0.4047 3.0543l0 -3.0543m-0.4047 3.0543l0 -3.0543m-0.4049 3.0543l0 -3.0543m-0.4048 3.0543l0 -3.0543m-0.4047 3.0543l0 -3.0543m-0.4049 3.0543l0 -3.0543m-0.4047 3.0543l0 -3.0543m-0.4048 3.0543l0 -3.0543m-0.4049 3.0543l0 -3.0543m-0.4047 3.0543l0 -3.0543m-91.85 18.8779l0 -3.5696m76.4313 -8.1149l1.0303 0m6.2191 -7.1934l8.1693 0m5.9983 0l1.0302 0m-7.0285 3.0543l5.9983 0m-20.3867 0l6.2191 0m-6.2191 1.0304l6.2191 0m15.1978 -4.0847l0 8.7214m0 -41.3252l0 1.0304m-22.4472 32.6037l0 6.1631m1.0303 -7.1934l0 3.0543m-63.1836 16.8171l0 -8.1326m-1.0304 7.1391l0 -7.1391m80.3319 24.2137l1.7297 0m-3.8639 0l1.6926 0m-3.827 0l1.6928 0m-3.8639 0l1.7295 0m-3.8639 0l1.7295 0m-3.8639 0l1.7297 0m-3.8639 0l1.7295 0m-3.8639 0l1.6928 0m-3.8272 0l1.6928 0m18.9514 -32.8982l0 -3.0543m0.4049 3.0543l0 -3.0543m0.3312 0l0 3.0543m-20.3867 1.0304l0 3.1087m20.3867 -3.1087l0 4.6367m-5.9983 -4.6367l0 0.7728m-18.657 -3.8272l3.2383 0m7.7645 3.3119l7.1391 0m0.5151 -4.3422l5.9983 0m0 14.3147l1.2879 0m-1.2879 13.2108l1.2879 0m-13.0637 5.9247l0 -3.8272m-7.8013 4.3424l15.2716 0m-15.1243 -0.4416l0 0.5151m11.2236 -0.5887l0 -3.8272m3.5695 4.5263l0 -4.5263m-10.6718 0.2577l10.6718 0m-10.6718 3.5695l11.003 0m-15.2716 -10.7084l4.4159 0m-4.4159 3.5693l4.4159 0m10.6349 -15.8971l0 3.9007m-4.3054 -3.2015l4.379 0m-3.9743 -0.92l0 4.3055m-0.2208 -0.3679l4.1951 0m-4.1951 -3.5695l4.1951 0m-10.782 0l4.1582 0m-0.0369 -0.1473l0 3.9007m-4.3055 -3.2015l4.3792 0m-3.9743 -0.92l0 4.3055m-0.2207 -0.3679l4.1582 0m12.3644 11.0028l0 1.5456m0 -1.5456l0 1.5456m-1.2879 -1.5456l0 1.5456m0.7728 6.1822l0 0.2576 -0.5153 0 0 -0.2576 0.5153 0m0 -5.3359l0 0.2576 -0.5153 0 0 -0.2576 0.5153 0m-0.5153 0.2576l0 5.0783m0.2576 -5.0783l0 5.0783m0.2577 -5.0783l0 5.0783m-0.7728 -5.3359l0 5.5935m1.0302 -5.5935l0 5.5935m-1.0302 0l1.2879 0m-1.2879 -16.302l0 -2.5023 1.0302 0 0 2.5023m-20.6073 16.6332l4.4159 0m-0.1473 0l0 -11.0765m0 6.8446l0 4.3055m-3.5693 -4.3055l0 4.3055m-0.552 -4.0847l0 4.0847m-0.1473 -3.6431l4.4159 0m-3.7166 -4.4527l0 4.3054m-0.552 -4.1213l0 4.0846m0.552 -7.2861l0 3.4958m-0.552 -3.3119l0 3.275m12.5852 0.1104l0 -5.0045m-5.1151 5.0045l0 -5.0045m5.483 4.7102l-5.8142 0m5.8142 -4.4159l-5.8142 0m13.0637 -12.2908l0 -0.2575 -0.5153 0 0 0.2575 0.5153 0m0 5.3358l0 -0.2207 -0.5153 0 0 0.2207 0.5153 0m-0.5153 -0.2207l0 -5.1151m0.2576 5.1151l0 -5.1151m0.2577 5.1151l0 -5.1151m-0.7728 5.3358l0 -5.5933m1.0302 5.5933l0 -5.5933m-1.5455 16.265l5.1151 0m-1.7295 -3.551c0,-0.1931 -0.1566,-0.3496 -0.3496,-0.3496 -0.1932,0 -0.3496,0.1565 -0.3496,0.3496 0,0.193 0.1564,0.3495 0.3496,0.3495 0.193,0 0.3496,-0.1565 0.3496,-0.3495m0 -1.0304c0,-0.1932 -0.1566,-0.3496 -0.3496,-0.3496 -0.1932,0 -0.3496,0.1564 -0.3496,0.3496 0,0.193 0.1564,0.3496 0.3496,0.3496 0.193,0 0.3496,-0.1566 0.3496,-0.3496m0.1471 0c0,-0.2743 -0.2224,-0.4969 -0.4967,-0.4969 -0.2744,0 -0.4969,0.2226 -0.4969,0.4969 0,0.2743 0.2225,0.4967 0.4969,0.4967 0.2743,0 0.4967,-0.2224 0.4967,-0.4967m0 1.0304c0,-0.2745 -0.2224,-0.4969 -0.4967,-0.4969 -0.2744,0 -0.4969,0.2224 -0.4969,0.4969 0,0.2744 0.2225,0.4967 0.4969,0.4967 0.2743,0 0.4967,-0.2223 0.4967,-0.4967m-3.5327 3.551l0 -8.1694m0.5153 -8.0956l1.2879 0m-1.8032 8.0956l5.1151 0m-5.1151 7.1391l4.0847 0m-4.0847 -6.1087l4.0847 0m1.0304 7.139l0 -8.1694m-1.0304 7.1391l0 -6.1087m-17.737 -12.9899l8.1693 0m-13.9835 1.7663l0 -2.5391m0.4047 2.5391l0 -2.5391m0.4048 2.5391l0 -2.5391m0.4049 2.5391l0 -2.5391m0.4047 2.5391l0 -2.5391m0.4047 2.5391l0 -2.5391m0.4049 2.5391l0 -2.5391m0.4048 2.5391l0 -2.5391m0.4047 2.5391l0 -2.5391m0.4049 2.5391l0 -2.5391m0.4047 2.5391l0 -2.5391m0.4047 2.5391l0 -2.5391m0.4049 2.5391l0 -2.5391m0.4048 2.5391l0 -2.5391m0.4047 2.5391l0 -2.5391m0.4049 2.5391l0 -1.7663m0.3679 1.7663l0 -1.7663m0.4049 1.7663l0 -1.7663m0.4047 1.7663l0 -1.7663m0.4047 1.7663l0 -1.7663m0.405 1.7663l0 -1.7663m0.4047 1.7663l0 -1.7663m0.4047 1.7663l0 -1.7663m0.4049 1.7663l0 -1.7663m0.4047 1.7663l0 -1.7663m0.4048 1.7663l0 -1.7663m0.4049 1.7663l0 -1.7663m0.4047 1.7663l0 -1.7663m0.4047 1.7663l0 -1.7663m0.4049 1.7663l0 -1.7663m0.4048 1.7663l0 -1.7663m0.4047 1.7663l0 -1.7663m0.4049 1.7663l0 -1.7663m0.4047 1.7663l0 -1.7663m0.4048 1.7663l0 -1.7663m0.4049 1.7663l0 -2.5391m0.4047 2.5391l0 -2.5391m0.4047 2.5391l0 -2.5391m0.4049 2.5391l0 -2.5391m0.4048 2.5391l0 -2.5391m0.4047 2.5391l0 -2.5391m0.4049 2.5391l0 -2.5391m0.4047 2.5391l0 -2.5391m0.4048 2.5391l0 -2.5391m0.4049 2.5391l0 -2.5391m0.4047 2.5391l0 -2.5391m0.4047 2.5391l0 -2.5391m0.4049 2.5391l0 -2.5391m0.4048 2.5391l0 -2.5391m0.4047 2.5391l0 -2.5391m-5.8142 0l5.9983 0m-14.1676 -4.0847l0 3.0543m8.1693 -3.0543l0 3.0543m-8.1693 1.0304l0 0.7728m-6.2191 1.7663l20.3867 0m-13.6525 -6.6238l0 4.3422m-6.7342 -4.3422l6.2191 0m7.6542 0l0 4.3422m-18.1419 -3.3119l0 -1.0303m15.4187 2.1527c0,-0.193 -0.1565,-0.3496 -0.3497,-0.3496 -0.1929,0 -0.3494,0.1566 -0.3494,0.3496 0,0.1931 0.1565,0.3496 0.3494,0.3496 0.1932,0 0.3497,-0.1565 0.3497,-0.3496m0.1472 0c0,-0.2744 -0.2225,-0.4967 -0.4969,-0.4967 -0.2743,0 -0.4967,0.2223 -0.4967,0.4967 0,0.2743 0.2224,0.4969 0.4967,0.4969 0.2744,0 0.4969,-0.2226 0.4969,-0.4969m-1.0304 0c0,-0.2744 -0.2224,-0.4967 -0.4967,-0.4967 -0.2744,0 -0.4969,0.2223 -0.4969,0.4967 0,0.2743 0.2225,0.4969 0.4969,0.4969 0.2743,0 0.4967,-0.2226 0.4967,-0.4969m-0.1471 0c0,-0.193 -0.1566,-0.3496 -0.3496,-0.3496 -0.1932,0 -0.3496,0.1566 -0.3496,0.3496 0,0.1931 0.1564,0.3496 0.3496,0.3496 0.193,0 0.3496,-0.1565 0.3496,-0.3496m-82.172 13.1556l0 3.5696m21.3434 -4.8575l-12.4748 0m12.4748 0.2575l-12.2173 0m12.2173 0.2576l-12.4748 0m12.7323 -0.7727l-12.7323 0m0 1.0304l12.7323 0m68.2989 20.6442l-18.1051 0m17.8474 -0.2577l-17.8474 0m2.0238 -32.8982l-0.9935 0 0 -1.7295 2.2079 0 0 1.7295 -0.9567 0m0 0.1473l-0.2577 0 0 -1.1409 0.2577 0 0 0.6993m-0.1473 0.2943l0.1841 -0.4047 0.0367 0 -0.1839 0.4416m-1.1408 0.2208l0 -0.2577 -0.2575 0m0.2575 -1.9871l0 0.2576 -0.2575 0m2.4654 1.9872l0 -0.2577 0.2577 0m-0.2577 -1.9871l0 0.2576 0.2577 0m-1.2144 1.5456l0 0.3312"/>
  </g>
  <g>
   <path id="dormitorioPrincipal" fill="none" fill-rule="nonzero" stroke="black" stroke-width="0.0762" stroke-miterlimit="22.9256" d="M34.2882 53.4755l-1.0671 0m1.0671 5.3359l-1.0671 0m21.2328 -5.851l-4.747 0m4.747 0.9935l-4.747 0m-2.0607 -0.9935l2.576 0m-3.6064 13.7627l3.6064 0m-3.6064 -1.0304l3.6064 0m-12.5853 17.5899l-0.736 0m18.7307 -30.5799l0 4.3423m-1.7297 6.5135l-1.5087 -3.6431m-2.7599 4.6366l4.0478 -1.6928m-3.3119 2.3552l-1.6559 -3.9743m-0.0367 0.4416l3.8639 -1.6193m-2.5024 4.8944l3.8638 -1.5825m-13.7258 -12.9899l-3.2752 0m0.8831 32.8982l0 -0.6992 0.2577 0 0 0.4415m3.3119 -16.3018l0.2576 0 0 3.5327 -0.5153 0 0 -0.2208 0.2577 0 0 -3.3119m-3.5696 16.3018l0 0.2577 3.5696 0 0.2576 0 0 -3.827 -0.5153 0 0 0.2574 0.2577 0m-23.9192 3.5696l0 -0.6992 -0.2577 0 0 0.4415m0.2577 0.2577l20.3496 0m17.8476 -29.3287l0 9.4573 -1.0304 0 0 -9.4573m-13.2476 12.7692l5.1151 0 0 -1.0304 -5.1151 0m0.2576 13.7629l0 -9.1998m-1.2512 9.1998l0 -9.1998m0.7359 8.6845l-0.4782 0 0 0.5153 0.4782 0 0 -0.5153 0 -8.1694m-0.2208 8.1694l0 -8.1694m-0.2574 8.1694l0 -8.1694m0.4782 0l0 -0.5151 -0.4782 0 0 0.5151 0.4782 0m0.2577 8.6847l-0.9936 0 0 2.5391m0.9936 0l0 -2.2817m0 -9.678l0 -3.3119m0 -1.0304l-0.9936 0 0 4.5631 0.9936 0m0 11.7389l0 1.0302m-3.5696 0l0 -1.0302 2.576 0m0.9936 1.0302l-3.3119 0m-20.6073 -0.4415l0 -0.5887 -2.576 0 0 -16.302m0.1839 -15.3083l4.8575 0m32.2727 15.3083l-2.4656 0m2.4656 -11.7388l-2.4656 0m-8.3533 -1.2512l0 4.3423m13.2476 4.7838l0 -5.2991m-8.3533 -3.5693l0 0.9935m0 -0.7361l0 0.4785 -0.2577 0 0 -0.2208 -0.2576 0 0 -0.5151 0.5153 0 0 0.5151m-4.3055 0l0.2208 0 0 -0.5151 -0.4784 0 0 0.5151m1.3247 4.0847l-0.0735 0.0368 -0.7728 0.184m1.1407 -0.3312l0 -0.0369c-0.0204,0 -0.0369,0.0165 -0.0369,0.0369 0,0.0203 0.0165,0.0368 0.0369,0.0368 0.0203,0 0.0368,-0.0165 0.0368,-0.0368 0,-0.0204 -0.0165,-0.0369 -0.0368,-0.0369l0 0.0369zm0.8465 -0.4785l-0.4785 0.3312 -0.0735 0m0.8094 -0.552l0 -0.0368c-0.0203,0 -0.0368,0.0165 -0.0368,0.0368 0,0.0204 0.0165,0.0369 0.0368,0.0369 0.0204,0 0.0369,-0.0165 0.0369,-0.0369 0,-0.0203 -0.0165,-0.0368 -0.0369,-0.0368l0 0.0368zm0.6624 -0.699l-0.1839 0.2575 -0.2577 0.2207m0.6257 -0.7359l0 -0.0368c-0.0203,0 -0.0368,0.0165 -0.0368,0.0368 0,0.0204 0.0165,0.0369 0.0368,0.0369 0.0204,0 0.0369,-0.0165 0.0369,-0.0369 0,-0.0203 -0.0165,-0.0368 -0.0369,-0.0368l0 0.0368zm0.4416 -0.8463l0 0.0367 -0.2576 0.552m0.368 -0.9199l0 -0.0368c-0.0203,0 -0.0369,0.0165 -0.0369,0.0368 0,0.0204 0.0166,0.0369 0.0369,0.0369 0.0203,0 0.0369,-0.0165 0.0369,-0.0369 0,-0.0203 -0.0166,-0.0368 -0.0369,-0.0368l0 0.0368zm0.1839 -1.1408l-0.0735 0.7728 -0.0369 0.0735m-3.9374 -0.6255l0.2208 0 0 4.0847 -0.2208 0 0 -4.0847m-0.2576 0l0.2576 0 0 -0.2208 0 0.2208 -0.2576 0 0 -0.4785m-18.9514 10.1934l-1.9871 0m1.9871 1.8032l-1.9871 0m1.8767 -1.8401l0 1.9505m-1.8032 -1.9505l0 1.9505m13.3211 -1.9136l-1.9871 0m1.9871 1.8032l-1.9871 0m1.8767 -1.8401l0 1.9505m-1.803 -1.9505l0 1.9505m-8.8686 -2.0975l0 10.6347m7.3597 -9.9724l0 1.4352m-3.2015 -0.9936l3.4223 0m-3.2015 0.9936l0 -1.3616m-0.2208 1.2143l3.4592 0m-4.0847 -1.2879l0 1.4352m-3.2015 -0.9936l3.4223 0m-3.2015 0.9936l0 -1.3616m-0.2208 1.2143l3.4592 0m4.2317 -1.9502l0 10.6347m0.3681 -10.4508l-8.7582 0m8.7582 10.1565l-8.7582 0m23.4778 -7.6174l0.2575 0 0 0.5151 -0.2575 0 0 -0.5151m0 0.7728l0 -1.0304m8.3901 0.2576l-8.3901 0m8.3901 0.2577l-8.1326 0m8.1326 0.2574l-8.3901 0m0 -0.7727l8.1325 0m1.0304 1.0304l-9.1629 0m8.3901 -3.3119l0 0.2208 0.5152 0 0 -0.2208 -0.5152 0m0.5152 0l0 2.5391m-0.2577 -2.3183l0 2.3183m-0.2575 0l0.5152 0 0 0.5151 -0.5152 0 0 -0.5151 0 -2.5391m0.7728 3.3119l0 -3.3119 -1.0304 0m0 0l0 2.2815m-17.2954 16.3755l0 0.5152 0.4782 0 0 -0.5152 -0.4782 0 -19.3932 0m19.3932 0.2577l-19.3932 0m19.3932 0.2575l-19.3932 0m0 -0.5152l-0.4782 0 0 0.5152 0.4782 0 0 -0.5152m-3.0542 -23.2568l0 -8.427m26.4952 8.427l0 -4.8575m-0.9936 4.8575l0 -8.427m-20.0553 12.7691l14.1307 0m-19.577 -9.678l25.5016 0m-0.2943 0l0 -3.0911m-0.4049 3.0911l0 -3.0911m-0.4048 3.0911l0 -3.0911m-0.4047 3.0911l0 -3.0911m-0.4049 3.0911l0 -3.0911m-0.4047 3.0911l0 -3.0911m-0.3681 3.0911l0 -3.0911m-0.4047 3.0911l0 -3.0911m-0.4047 3.0911l0 -3.0911m-0.4049 3.0911l0 -3.0911m-0.4048 3.0911l0 -3.0911m-0.4047 3.0911l0 -3.0911m-0.4049 3.0911l0 -3.0911m-0.4047 3.0911l0 -3.0911m-0.4048 3.0911l0 -3.0911m-0.4049 3.0911l0 -3.0911m-0.4047 3.0911l0 -3.0911m-0.4047 3.0911l0 -3.0911m-0.4049 3.0911l0 -3.0911m-0.4048 3.0911l0 -3.0911m-0.4047 3.0911l0 -3.0911m-0.4049 3.0911l0 -3.0911m-0.4047 3.0911l0 -3.0911m-0.4047 3.0911l0 -3.0911m-0.405 3.0911l0 -3.0911m-0.4047 3.0911l0 -3.0911m-0.4047 3.0911l0 -3.0911m-0.4049 3.0911l0 -3.0911m-0.4047 3.0911l0 -3.0911m-0.4048 3.0911l0 -3.0911m-0.4049 3.0911l0 -3.0911m-0.4047 3.0911l0 -3.0911m-0.4047 3.0911l0 -3.0911m-0.4049 3.0911l0 -3.0911m-0.4048 3.0911l0 -3.0911m-0.4047 3.0911l0 -3.0911m-0.4049 3.0911l0 -3.0911m-0.4047 3.0911l0 -3.0911m-0.4048 3.0911l0 -3.0911m-0.4049 3.0911l0 -3.0911m-0.4047 3.0911l0 -3.0911m-0.4047 3.0911l0 -3.0911m-0.4049 3.0911l0 -3.0911m-0.4048 3.0911l0 -3.0911m-0.4047 3.0911l0 -3.0911m-0.4049 3.0911l0 -3.0911m-0.4047 3.0911l0 -3.0911m-0.4048 3.0911l0 -3.0911m-0.4049 3.0911l0 -3.0911m-0.4047 3.0911l0 -3.0911m-0.4047 3.0911l0 -3.0911m-0.4049 3.0911l0 -3.0911m-0.4048 3.0911l0 -3.0911m-0.4047 3.0911l0 -3.0911m-0.4049 3.0911l0 -3.0911m-0.4047 3.0911l0 -3.0911m-0.4047 3.0911l0 -3.0911m-0.4049 3.0911l0 -3.0911m-0.4048 3.0911l0 -3.0911m-0.4047 3.0911l0 -3.0911m-0.4049 3.0911l0 -3.0911m-0.4047 3.0911l0 -3.0911m-0.4048 3.0911l0 -3.0911m31.2423 2.576l8.3533 0m-8.3533 0.9935l9.3837 0m0 29.071l0 -16.3018m-14.0204 16.3018l14.0204 0m-13.9468 -29.071l0 -0.9935 -0.3312 0m0 0.9935l0.3312 0m-21.1227 11.2236l-0.2574 0m0 -6.3661l0 6.3661m0.2574 -6.3661l0 6.3661m13.4684 -3.0542l0 -3.3119m-0.4047 3.3119l0 -3.3119m-0.4047 3.3119l0 -3.3119m-0.4049 3.3119l0 -3.3119m-0.4048 3.3119l0 -3.3119m-0.4047 3.3119l0 -3.3119m-0.4049 3.3119l0 -3.3119m-0.4047 3.3119l0 -3.3119m-0.4047 3.3119l0 -3.3119m-0.405 3.3119l0 -3.3119m-0.4047 3.3119l0 -3.3119m-0.4047 3.3119l0 -3.3119m-0.4049 3.3119l0 -3.3119m-0.4047 3.3119l0 -3.3119m-0.4048 3.3119l0 -3.3119m-0.4049 3.3119l0 -3.3119m-0.4047 3.3119l0 -3.3119m-0.4047 3.3119l0 -3.3119m-0.4049 3.3119l0 -3.3119m-0.4048 3.3119l0 -3.3119m-0.4047 3.3119l0 -3.3119m-0.4049 3.3119l0 -3.3119m-0.4047 3.3119l0 -3.3119m-0.4048 3.3119l0 -3.3119m-0.4049 3.3119l0 -3.3119m-0.4047 3.3119l0 -3.3119m-0.4047 3.3119l0 -3.3119m-0.4049 3.3119l0 -3.3119m-0.4048 3.3119l0 -3.3119m-0.4047 3.3119l0 -3.3119m-0.4049 3.3119l0 -3.3119m-0.4047 3.3119l0 -3.3119m-0.4048 3.3119l0 -3.3119m-0.4049 3.3119l0 -3.3119m13.7629 6.3661l-0.2576 0 0 -6.3661m0.2576 6.3661l0 -6.3661m5.9246 0l0.9936 0m-0.9936 6.8813l0.9936 0m-21.0489 -6.8813l14.1307 0m-14.1307 3.3119l14.1307 0m-31.7942 4.5998l0 -10.8557m0 -3.5694l0 -1.9136m1.0303 8.5741l0 1.7663m0 -3.0911l0 -1.0671m5.9247 14.9771l0.9198 0m-6.8445 -15.6763l0 -3.5694m-0.2575 3.3119l0 -3.3119m10.4508 19.2457l-0.2576 0 0 1.0304 0.2576 0m0 -20.865l0 5.3359m-10.1933 -5.3359l0 5.3359m1.5088 -6.6606l5.3357 0m-4.3054 16.486l0 3.9742m1.0304 -3.9742l0 3.9742m6.6238 0.552l0 -1.0673m-0.7728 -3.275l0.7728 -0.3312m-4.7102 2.024l3.6798 -1.5824m-5.0783 2.8703l-0.5151 1.5087m1.9136 -1.9871l4.7102 1.9871m-6.6238 -4.8206l0.5151 1.5456m0.6993 0.8647c0,-0.1321 -0.1071,-0.2392 -0.2393,-0.2392 -0.1321,0 -0.2392,0.1071 -0.2392,0.2392 0,0.1321 0.1071,0.2392 0.2392,0.2392 0.1322,0 0.2393,-0.1071 0.2393,-0.2392m0.8096 -3.1831l0 0.5151 0.2575 0 0 -0.2574 0.2576 0 0 -0.5153 -0.5151 0 0 0.5153m3.827 0l-0.2576 0 0 -0.5153 0.5153 0 0 0.5153m-1.0673 3.7166l0.552 0.1104m-0.8463 -0.1839l0 -0.0369c-0.0204,0 -0.0369,0.0165 -0.0369,0.0369 0,0.0203 0.0165,0.0368 0.0369,0.0368 0.0203,0 0.0368,-0.0165 0.0368,-0.0368 0,-0.0204 -0.0165,-0.0369 -0.0368,-0.0369l0 0.0369zm-0.8832 -0.4049l0.5151 0.2945 0.0369 0m-0.8097 -0.4785l0 -0.0368c-0.0203,0 -0.0368,0.0165 -0.0368,0.0368 0,0.0204 0.0165,0.0369 0.0368,0.0369 0.0204,0 0.0369,-0.0165 0.0369,-0.0369 0,-0.0203 -0.0165,-0.0368 -0.0369,-0.0368l0 0.0368zm-0.699 -0.6992l0.0367 0 0.4049 0.4784m-0.9569 -1.6559l0 0.0368 0.2208 0.5887m-0.2944 -0.9199l0 -0.0368c-0.0203,0 -0.0368,0.0165 -0.0368,0.0368 0,0.0204 0.0165,0.0369 0.0368,0.0369 0.0204,0 0.0369,-0.0165 0.0369,-0.0369 0,-0.0203 -0.0165,-0.0368 -0.0369,-0.0368l0 0.0368zm-0.0368 -0.8831l0 0.552m3.5695 -0.2946l-0.2576 0 0 3.5696 0.2576 0 0 -3.5696m0.2577 0l-0.2577 0 0 -0.2574 0 0.2574 0.2577 0 0 -0.5151m-4.0847 -7.3966l0 -0.5151 0.2575 0 0 0.2575 0.2576 0 0 0.5153 -0.5151 0 0 -0.5153m3.827 0l-0.2576 0 0 0.5153 0.5153 0 0 -0.5153m-1.0673 -3.7535l0.552 -0.0735m-0.8463 0.1839l0 -0.0369c-0.0204,0 -0.0369,0.0166 -0.0369,0.0369 0,0.0203 0.0165,0.0369 0.0369,0.0369 0.0203,0 0.0368,-0.0166 0.0368,-0.0369 0,-0.0203 -0.0165,-0.0369 -0.0368,-0.0369l0 0.0369zm-0.8832 0.4049l0.5151 -0.2945 0.0369 0m-0.8097 0.4784l0 -0.0368c-0.0203,0 -0.0368,0.0165 -0.0368,0.0368 0,0.0204 0.0165,0.0369 0.0368,0.0369 0.0204,0 0.0369,-0.0165 0.0369,-0.0369 0,-0.0203 -0.0165,-0.0368 -0.0369,-0.0368l0 0.0368zm-0.699 0.6993l0.0367 0 0.4049 -0.4785m-0.5889 0.736l0 -0.0369c-0.0203,0 -0.0368,0.0165 -0.0368,0.0369 0,0.0203 0.0165,0.0368 0.0368,0.0368 0.0204,0 0.0369,-0.0165 0.0369,-0.0368 0,-0.0204 -0.0165,-0.0369 -0.0369,-0.0369l0 0.0369zm-0.368 0.92l0 -0.0736 0.2208 -0.5519m-0.2944 0.9198l0 -0.0368c-0.0203,0 -0.0368,0.0165 -0.0368,0.0368 0,0.0204 0.0165,0.0369 0.0368,0.0369 0.0204,0 0.0369,-0.0165 0.0369,-0.0369 0,-0.0203 -0.0165,-0.0368 -0.0369,-0.0368l0 0.0368zm-0.0368 0.8832l0 -0.552m3.5695 0.2945l-0.2576 0 0 -3.5695 0.2576 0 0 3.5695m0.2577 0l-0.2577 0 0 0.2575 0 -0.2575 0.2577 0 0 0.5151m-8.6478 3.9743l-0.2944 0m2.1343 0.9567l-0.2575 0 0 0.2577m-2.024 -0.2577l0.2576 0 0 0.2577m2.0239 -2.4656l-0.2575 0 0 -0.2575m-2.024 0.2575l0.2576 0 0 -0.2575m0 1.3615l0.4416 0.2208 -0.0368 0.0368 -0.4048 -0.1839m-0.1104 0.0735l0 -0.2208 1.104 0 0 0.2208 -0.6992 0m-0.2944 -0.2208l0 -1.0304 1.7664 0 0 2.2079 -1.7664 0 0 -0.9567m2.8704 -9.0894l-0.2577 0 0 0.2577m0.2577 -2.1344l-0.2577 0 0 -0.2575m-3.2015 2.1342l0.2577 0 0 0.2577m-0.2577 -2.1344l0.2577 0 0 -0.2575m2.9438 0.2575l0 1.8767 -2.9438 0 0 -1.8767 2.9438 0m0.0735 3.0911l-0.2574 0 0 -0.2575m0 2.2446l0.2574 0m-0.2574 -1.9871l0 1.9871 0 0.2577m0 -2.2448l-3.2752 0 0 1.9871 3.2752 0m4.0846 15.1612l0.2575 0 0 0.5152 -0.2575 0 0 -0.5152m2.5759 0l-0.2575 0 0 0.5152 0.2575 0 0 -0.5152m-0.2575 0.5152l-2.3184 0m2.3184 -0.2575l-2.0609 0m2.0609 -0.2577l-2.3184 0m-7.3598 -5.0782l2.5391 0m0 -1.0304l-2.5391 0m0 0.2576l0.2576 0 0 0.5151 -0.2576 0 0 -0.5151m2.5391 0l-0.2575 0 0 0.5151 0.2575 0 0 -0.5151m-0.2575 0.5151l-2.2816 0m2.2816 -0.2574l-2.024 0m2.024 -0.2577l-2.2816 0m3.0544 -0.2576l0 -6.8813m-3.0544 -6.5134l0 -1.9136m0 7.3966l0 -1.9136m0 10.8557l0 -7.9117m5.5935 0l0 -1.0304m-3.0544 14.7931l0 -6.8814m4.8207 6.8814l0 -1.0304m2.8335 -13.7627l0 -7.3966m-0.5151 8.427l0 -1.0304m-6.1087 13.7627l0 -4.8206m0 0l2.024 0m-3.0544 5.851l4.8207 0m-3.7903 -1.0304l3.7903 0m-4.8207 -5.851l3.0544 0m-5.5935 -6.8813l5.5935 0m4.0847 -1.0304l0.5151 0m-10.1933 0l5.5935 0m0 8.9421l0 -1.0304m4.3422 5.851l-2.5759 0m0 1.0304l2.5759 0m0.2576 -1.0304l0 -4.8206m0 0l-0.5151 0 0 -1.0304 1.5087 0m-11.1869 -15.3083l36.6885 0m-27.0103 8.427l1.5087 0m-12.2172 7.9117l1.0303 0m10.1933 5.851l0 10.4508 3.3119 0m-3.5695 -10.4508l0 10.7085 3.8272 0 0 -0.2577m-13.7629 -30.7269l-1.0303 0m1.0303 3.5694l-1.0303 0m0.5151 -0.2575l0 -3.0544m-0.2576 3.0544l0 -3.3119m0.5153 3.5694l0 -0.2575 -0.5153 0 0 0.2575 0.5153 0m0 -3.5694l0 0.2575 -0.5153 0 0 -0.2575 0.5153 0m-0.7728 0l0 3.5694m0 1.7663l0 -1.0671"/>
  </g>
  <g>
   <path id="dormitorios" fill="none" fill-rule="nonzero" stroke="black" stroke-width="0.0762" stroke-miterlimit="22.9256" d="M7.4987 24.4043l0 14.278m19.6137 -18.6939l0 5.0048m-18.3627 -5.0048l0 5.0048m32.4566 16.2283l-0.699 0m-12.4013 -21.5642l0 5.3359m14.1308 -10.0093l-5.3359 0m5.3359 1.2879l-5.3359 0m4.3054 0l-4.3054 0m4.3054 21.3801l-4.3054 0m4.3054 0l-4.3054 0m4.3054 3.5696l-4.3054 0m4.5631 0l-4.5631 0m4.5631 1.0304l-4.5631 0m-9.7885 -1.1777l0 -1.803m-18.3627 1.803l0 -1.803m8.4639 -22.9994l2.9438 0m-2.9438 24.9497l2.9438 0m2.3919 -21.3801l0 -3.5696m4.3792 0l-4.6 0m4.6 3.5696l-4.6 0m-1.1775 29.5494l1.6559 0m-1.8399 -0.1839l0 -1.3985m-0.9935 1.3985l0 -1.3985m20.2026 1.5824l-3.2752 0m4.3054 -7.1389l-4.3054 0m4.3054 7.1389l-4.3054 0m7.7646 -34.1494l0 0.5153 -0.2577 0m0 -0.5153l0 -0.0369c-0.0203,0 -0.0368,0.0165 -0.0368,0.0369 0,0.0203 0.0165,0.0368 0.0368,0.0368 0.0204,0 0.0369,-0.0165 0.0369,-0.0368 0,-0.0204 -0.0165,-0.0369 -0.0369,-0.0369l0 0.0369zm0 0.5153l0 -0.5153 0 -0.2575 3.0911 0 0.2208 0 0 6.6238 -0.2208 0 0 -6.3663 -2.8334 0m-37.1668 0l0 -0.2575 22.668 0 0 0.7728 -0.2575 0 0 -0.5153 -22.1898 0m0.5152 9.1629l0 -0.2575 -0.5152 0 0 -8.9054 -0.2207 0 0 9.1629 0.7359 0m0 14.278l0 0.2577 -0.5152 0 0 2.2815 -0.2207 0 0 -2.5392 0.7359 0m-0.5152 3.5696l-0.2207 0 0 -1.0304 0.2207 0m13.2476 4.2319l0 2.8703m-0.9935 0.8832l0 -1.3985m-16.302 1.3985l0 -1.3985m23.2937 -27.967l0 -3.5696m-0.4048 3.5696l0 -3.5696m-0.4047 3.5696l0 -3.5696m-0.4049 3.5696l0 -3.5696m-0.4047 3.5696l0 -3.5696m-0.4048 3.5696l0 -3.5696m-0.4049 3.5696l0 -3.5696m-0.4047 3.5696l0 -3.5696m-0.4047 3.5696l0 -3.5696m-0.4049 3.5696l0 -3.5696m-0.4048 3.5696l0 -3.5696m-0.4047 3.5696l0 -3.5696m-0.4049 3.5696l0 -3.5696m-0.4047 3.5696l0 -3.5696m-0.4048 3.5696l0 -3.5696m-0.4049 3.5696l0 -3.5696m-0.4047 3.5696l0 -3.5696m-0.4047 3.5696l0 -3.5696m-0.4049 3.5696l0 -3.5696m-0.4048 3.5696l0 -3.5696m-0.4047 3.5696l0 -3.5696m-0.4049 3.5696l0 -3.5696m-0.4047 3.5696l0 -3.5696m-0.4048 3.5696l0 -3.5696m-0.4049 3.5696l0 -3.5696m-0.4047 3.5696l0 -3.5696m-0.4047 3.5696l0 -3.5696m-0.4049 3.5696l0 -3.5696m-0.4047 3.5696l0 -3.5696m-0.4048 3.5696l0 -3.5696m-0.4049 3.5696l0 -3.5696m-0.4047 3.5696l0 -3.5696m-0.4047 3.5696l0 -3.5696m-0.4049 3.5696l0 -3.5696m-0.4048 3.5696l0 -3.5696m-0.4047 3.5696l0 -3.5696m-0.4049 3.5696l0 -3.5696m-0.4047 3.5696l0 -3.5696m-0.4048 3.5696l0 -3.5696m-0.4049 3.5696l0 -3.5696m-0.4047 3.5696l0 -3.5696m-0.4047 3.5696l0 -3.5696m-0.4049 3.5696l0 -3.5696m-0.4048 3.5696l0 -3.5696m-0.4047 3.5696l0 -3.5696m6.2189 33.119l-5.3726 0m3.0911 -8.1693l0 1.0304m-4.0846 -1.0304l0 1.0304m4.0846 -0.5153l0 0.5153 -0.2576 0 0 -0.2577 -0.2575 0 0 -0.5151 0.5151 0 0 0.5151m-3.827 0l0.2575 0 0 -0.5151 -0.5151 0 0 0.5151m1.0671 3.7535l-0.552 0.0736m0.8465 -0.184l0 -0.0368c-0.0204,0 -0.0369,0.0165 -0.0369,0.0368 0,0.0204 0.0165,0.0369 0.0369,0.0369 0.0203,0 0.0368,-0.0165 0.0368,-0.0369 0,-0.0203 -0.0165,-0.0368 -0.0368,-0.0368l0 0.0368zm0.8831 -0.4047l-0.5153 0.2943 -0.0366 0.0369m0.8094 -0.5153l0 -0.0369c-0.0203,0 -0.0368,0.0166 -0.0368,0.0369 0,0.0203 0.0165,0.0368 0.0368,0.0368 0.0204,0 0.0369,-0.0165 0.0369,-0.0368 0,-0.0203 -0.0165,-0.0369 -0.0369,-0.0369l0 0.0369zm0.6624 -0.6991l-0.4047 0.4783m0.5888 -0.7359l0 -0.0369c-0.0203,0 -0.0368,0.0165 -0.0368,0.0369 0,0.0203 0.0165,0.0368 0.0368,0.0368 0.0203,0 0.0369,-0.0165 0.0369,-0.0368 0,-0.0204 -0.0166,-0.0369 -0.0369,-0.0369l0 0.0369zm0.3679 -0.9201l0 0.0738 -0.2208 0.5519m0.2945 -0.92l0 -0.0368c-0.0203,0 -0.0369,0.0165 -0.0369,0.0368 0,0.0204 0.0166,0.0369 0.0369,0.0369 0.0203,0 0.0369,-0.0165 0.0369,-0.0369 0,-0.0203 -0.0166,-0.0368 -0.0369,-0.0368l0 0.0368zm0.0367 -0.8832l0 0.552m-3.5694 -0.2943l0.2575 0 0 3.5694 -0.2575 0 0 -3.5694m-0.2576 0l0.2576 0 0 -0.2577 0 0.2577 -0.2576 0 0 -0.5153m18.5834 2.5391l-0.4784 0 0 0.2577 0.2577 0 0 0.2576 0.4782 0 0 -0.5153 -0.4782 0m0 4.3423l0 -0.2576 0.4782 0 0 0.5153 -0.4782 0m-4.1216 -1.3616l-0.0368 0.0735 -0.184 0.7728m0.3312 -1.1407l0 -0.0368c-0.0203,0 -0.0368,0.0165 -0.0368,0.0368 0,0.0204 0.0165,0.0369 0.0368,0.0369 0.0204,0 0.0369,-0.0165 0.0369,-0.0369 0,-0.0203 -0.0165,-0.0368 -0.0369,-0.0368l0 0.0368zm0.4785 -0.8096l-0.2945 0.4785 -0.0367 0.0366m0.552 -0.7727l0 -0.0369c-0.0204,0 -0.0369,0.0165 -0.0369,0.0369 0,0.0203 0.0165,0.0368 0.0369,0.0368 0.0203,0 0.0368,-0.0165 0.0368,-0.0368 0,-0.0204 -0.0165,-0.0369 -0.0368,-0.0369l0 0.0369zm0.699 -0.6624l-0.2575 0.1841 -0.2208 0.2208m0.736 -0.6257l0 -0.0369c-0.0204,0 -0.0369,0.0165 -0.0369,0.0369 0,0.0203 0.0165,0.0368 0.0369,0.0368 0.0203,0 0.0368,-0.0165 0.0368,-0.0368 0,-0.0204 -0.0165,-0.0369 -0.0368,-0.0369l0 0.0369zm0.8463 -0.4416l-0.0367 0.0369 -0.5153 0.2576m0.8832 -0.368l0 -0.0369c-0.0204,0 -0.0369,0.0165 -0.0369,0.0369 0,0.0203 0.0165,0.0368 0.0369,0.0368 0.0203,0 0.0368,-0.0165 0.0368,-0.0368 0,-0.0204 -0.0165,-0.0369 -0.0368,-0.0369l0 0.0369zm1.1777 -0.2208l-0.8097 0.1104 -0.0735 0m0.6255 3.9742l0 -0.2576 -4.0847 0 0 0.2576 4.0847 0m0 0.2577l0 -0.2577 0.2577 0 -0.2577 0 0 0.2577 0.4784 0m-17.1851 -1.8032l0 2.3183m-5.483 -7.1389l2.576 0m0 -1.0304l-2.576 0m0 0.2576l0.2576 0 0 0.5151 -0.2576 0 0 -0.5151m2.576 0l-0.2577 0 0 0.5151 0.2577 0 0 -0.5151m-0.2577 0.5151l-2.3183 0m2.3183 -0.2576l-2.0607 0m2.0607 -0.2575l-2.3183 0m0 -0.2576l0 1.0304m2.7967 -3.5696l0 -14.278m0.5152 0.5153l0.5151 0 0 -0.5153 -0.5151 0 0 0.5153 0 13.2476m0.2576 -13.2476l0 13.2476m0.2575 -13.2476l0 13.2476m-0.5151 0l0 0.5151 0.5151 0 0 -0.5151 -0.5151 0m0.5151 0.5151l-1.0303 0m22.4473 -23.6984l14.2411 0m-0.4782 0.7728l0 0.5151 0.4782 0 0 -0.5151 -0.4782 0 -13.2476 0m13.2476 0.2575l-13.2476 0m13.2476 0.2576l-13.2476 0m0 -0.5151l-0.5153 0 0 0.5151 0.5153 0 0 -0.5151m-0.5153 0.5151l0 -1.0304m14.2411 1.0304l0 -1.0304m-35.6581 23.4409l-1.0303 0m5.1518 10.3038l0 0.2943m0.9936 0.1473l0 -0.2577 0.2208 0m-2.4287 -2.024l0 0.2577 -0.2577 0m0.2577 2.024l0 -0.2577 -0.2577 0m1.3616 0l0.184 -0.4416 0.0368 0.0369 -0.1839 0.4047m0.0735 0.1104l-0.2208 0 0 -1.1039 0.2208 0 0 0.6992m-0.2208 0.2943l-0.9935 0 0 -1.7663 2.2079 0 0 1.7663 -0.9936 0m2.4656 -2.0975l-4.9311 0m35.8053 -5.3359l0 -0.5151 -0.2576 0 0 0.2576 -0.2575 0 0 0.5151 0.5151 0 0 -0.5151m-4.3423 0l0.2577 0 0 0.5151 -0.5152 0 0 -0.5151m1.3615 -4.1215l-0.0736 0 -0.7727 -0.2208m1.1408 0.368l0 -0.0368c-0.0204,0 -0.0369,0.0165 -0.0369,0.0368 0,0.0204 0.0165,0.0369 0.0369,0.0369 0.0203,0 0.0368,-0.0165 0.0368,-0.0369 0,-0.0203 -0.0165,-0.0368 -0.0368,-0.0368l0 0.0368zm0.8463 0.4783l-0.5151 -0.3312 -0.0369 -0.0367m0.7728 0.552l0 -0.0368c-0.0204,0 -0.0369,0.0165 -0.0369,0.0368 0,0.0204 0.0165,0.0369 0.0369,0.0369 0.0203,0 0.0368,-0.0165 0.0368,-0.0369 0,-0.0203 -0.0165,-0.0368 -0.0368,-0.0368l0 0.0368zm0.6624 0.7359l-0.184 -0.2576 -0.2208 -0.2575m0.6256 0.7728l0 -0.0369c-0.0204,0 -0.0369,0.0165 -0.0369,0.0369 0,0.0203 0.0165,0.0368 0.0369,0.0368 0.0203,0 0.0368,-0.0165 0.0368,-0.0368 0,-0.0204 -0.0165,-0.0369 -0.0368,-0.0369l0 0.0369zm0.4415 0.8463l-0.0368 -0.0369 -0.2575 -0.5519m-3.496 1.8032l0.2577 0 0 -4.0847 -0.2577 0 0 4.0847m-0.2575 0l0.2575 0 0 0.2576 0 -0.2576 -0.2575 0 0 0.5151m-34.2229 4.4527l-0.2577 0 0 -0.2576m0.2577 2.1344l-0.2577 0 0 0.2576m-3.2015 -2.1344l0.2577 0 0 -0.2576m-0.2577 2.1344l0.2577 0 0 0.2576m2.9438 -0.2576l0 -1.8768 -2.9438 0 0 1.8768 2.9438 0m0.0735 -3.0543l-0.2574 0 0 0.2575m0 -2.2446l0.2574 0m-0.2574 1.9871l0 -1.9871 0 -0.2577m-3.5327 2.2448l0.2575 0 0 0.2575m-0.2575 -2.2446l0.2575 0 0 -0.2577m3.2752 2.2448l-3.2752 0 0 -1.9871 3.2752 0m8.4268 -0.7728l0 7.1389m-6.6238 -29.5494l18.3627 0m1.0304 2.4654l0 -1.9503m1.8031 1.9503l0 -1.9503m-1.8399 1.8399l1.9503 0m-1.9503 -1.7664l1.9503 0m-1.9135 13.2845l0 -1.9871m1.8031 1.9871l0 -1.9871m-1.8399 1.8767l1.9503 0m-1.9503 -1.8032l1.9503 0m-2.0976 -8.8684l10.635 0m-9.9726 7.3966l1.4352 0m-0.9936 -3.2016l0 3.4223m0.9936 -3.2015l-1.3615 0m1.2144 -0.2576l0 3.4958m-1.2881 -4.0847l1.4352 0m-0.9936 -3.2015l0 3.4223m0.9936 -3.2015l-1.3615 0m1.2144 -0.2574l0 3.4958m-1.9505 4.1951l10.635 0m-10.4877 0.4047l0 -8.7949m10.1933 8.7949l0 -8.7949m-11.2238 3.3119l0 -1.9503m-1.803 1.9503l0 -1.9503m1.8399 1.8399l-1.9503 0m1.9503 -1.7663l-1.9503 0m1.9134 13.2844l0 -1.9871m-1.803 1.9871l0 -1.9871m1.8399 1.8767l-1.9503 0m1.9503 -1.8032l-1.9503 0m2.0976 -8.8686l-10.635 0m9.9726 7.3966l-1.4352 0m0.9936 -3.2015l0 3.4223m-0.9936 -3.2015l1.3615 0m-1.2144 -0.2575l0 3.459m1.2881 -4.0478l-1.4352 0m0.9936 -3.2015l0 3.4223m-0.9936 -3.2015l1.3615 0m-1.2144 -0.2577l0 3.4592m1.9505 4.2319l-10.635 0m10.4877 0.4048l0 -8.7949m-10.1933 8.7949l0 -8.7949m-9.1997 -1.9872l0 -8.9054m0 25.9801l0 -2.2815m1.0303 -14.5357l0 -8.1325m0 24.9497l0 -2.5392m19.3563 5.5934l-0.9936 0m0.9936 4.6l-0.9936 0m14.4988 -7.6542l0 1.0304m4.5998 -1.0304l0 1.0304m9.6781 5.851l-0.2575 0 0 0.5151 0.2575 0 0 -0.5151m-34.9221 1.2879l0 -8.1693m-0.9935 8.1693l0 -7.1389m-16.302 7.1389l0 -7.1389m40.994 -27.0105l2.8334 0m-39.7795 0l22.1898 0m14.4986 1.0304l2.0609 0m-18.3627 0l2.0607 0m-21.417 0l18.3627 0m0.9936 21.3801l13.2476 0m-13.2476 3.5696l13.5052 0m4.5998 1.0304l1.2879 0m-19.3929 0l13.5052 0m-13.5052 7.1389l13.2476 0m6.1453 -7.1389l0 -2.7968m-6.6238 1.7664l0 -3.5696m0.4785 3.5696l0 -3.5696m-14.2412 6.6238l0 -28.0039m0 33.119l0 -0.5151m0.9936 -7.6542l0 -24.9497m0 28.0039l0 -2.0238m0 7.1389l0 -0.5151m12.4379 -7.6542l0 -3.5696m-0.4047 3.5696l0 -3.5696m-0.4047 3.5696l0 -3.5696m-0.4049 3.5696l0 -3.5696m-0.4047 3.5696l0 -3.5696m-0.4048 3.5696l0 -3.5696m-0.4049 3.5696l0 -3.5696m-0.4047 3.5696l0 -3.5696m-0.4047 3.5696l0 -3.5696m-0.4049 3.5696l0 -3.5696m-0.4048 3.5696l0 -3.5696m-0.4047 3.5696l0 -3.5696m-0.4049 3.5696l0 -3.5696m-0.4047 3.5696l0 -3.5696m-0.4048 3.5696l0 -3.5696m-0.4049 3.5696l0 -3.5696m-0.4047 3.5696l0 -3.5696m-0.4047 3.5696l0 -3.5696m-0.4049 3.5696l0 -3.5696m-0.4048 3.5696l0 -3.5696m-0.4047 3.5696l0 -3.5696m-0.4049 3.5696l0 -3.5696m-0.4047 3.5696l0 -3.5696m-0.4048 3.5696l0 -3.5696m-0.4049 3.5696l0 -3.5696m-0.4047 3.5696l0 -3.5696m-0.4047 3.5696l0 -3.5696m-0.4049 3.5696l0 -3.5696m-0.4048 3.5696l0 -3.5696m-0.4047 3.5696l0 -3.5696m-0.4049 3.5696l0 -3.5696m26.2009 8.1694l1.0304 0m-42.5396 -4.5998l7.875 0m-12.2173 0l0.2577 0m-6.3662 0l2.2815 0m8.1693 1.0304l6.8815 0m-12.2541 0l1.288 0m-5.3359 0l1.2512 0m16.0443 7.1389l6.1454 0m-23.4409 0l16.302 0m26.7895 0l7.8013 0m-0.1104 -9.9357l-4.747 0m4.747 -1.0304l-4.747 0m5.9247 -15.6395l0 2.208m-1.0304 -2.208l0 2.208m-8.1325 -2.208l0 2.208m1.0302 -2.208l0 2.208m-1.0302 -5.3359l0 5.3359m1.1775 14.4619l2.576 0m5.4094 -11.1132l0 -3.8639m0 6.7709l0 5.3359m0.8832 -14.2043l-0.8832 0m-8.1327 -0.7728l0.2208 0 0 1.0303 -0.2208 0m2.2817 0l0 -1.0303 0 1.0303m-2.0609 0l2.0609 0m0 -1.0303l-2.0609 0m0 0.2575l0.2577 0 0 0.5153 -0.2577 0 0 -0.5153m2.0609 0l-0.2577 0 0 0.5153 0.2577 0 0 -0.5153m-0.2577 0.5153l-1.8032 0m1.8032 -0.2577l-1.5455 0m1.5455 -0.2576l-1.8032 0m0 -0.2575l0 1.0303m6.7342 15.7867l-4.747 0m4.747 -15.7867l-4.747 0m4.8943 0.1472l0 2.208m-7.1023 -2.208l0 2.208m-0.5151 8.8317l0.5151 0 0 0.2576 -0.2574 0 0 0.2575 -0.5153 0 0 -0.5151 0.5153 0m0 3.827l0 -0.2575 -0.5153 0 0 0.5152 0.5153 0m3.7166 -1.0305l0.0735 0.5153m-0.1471 -0.8465l0 -0.0368c-0.0203,0 -0.0368,0.0165 -0.0368,0.0368 0,0.0204 0.0165,0.0369 0.0368,0.0369 0.0204,0 0.0369,-0.0165 0.0369,-0.0369 0,-0.0203 -0.0165,-0.0368 -0.0369,-0.0368l0 0.0368zm-0.4049 -0.8831l0.2946 0.5153 0 0.0735m-0.4785 -0.8463l0 -0.0369c-0.0203,0 -0.0368,0.0166 -0.0368,0.0369 0,0.0203 0.0165,0.0369 0.0368,0.0369 0.0203,0 0.0369,-0.0166 0.0369,-0.0369 0,-0.0203 -0.0166,-0.0369 -0.0369,-0.0369l0 0.0369zm-0.6992 -0.6624l0.4784 0.4047m-0.7728 -0.5888l0 -0.0368c-0.0203,0 -0.0368,0.0165 -0.0368,0.0368 0,0.0203 0.0165,0.0369 0.0368,0.0369 0.0204,0 0.0369,-0.0166 0.0369,-0.0369 0,-0.0203 -0.0165,-0.0368 -0.0369,-0.0368l0 0.0368zm-0.8831 -0.3679l0.0368 0 0.5887 0.2208m-0.9567 -0.2576l0 -0.0369c-0.0204,0 -0.0369,0.0165 -0.0369,0.0369 0,0.0203 0.0165,0.0368 0.0369,0.0368 0.0203,0 0.0368,-0.0165 0.0368,-0.0368 0,-0.0204 -0.0165,-0.0369 -0.0368,-0.0369l0 0.0369zm-0.8463 -0.0736l0.5519 0m-0.2945 3.5694l0 -0.2575 3.5327 0 0 0.2575 -3.5327 0m0 0.2577l0 -0.2577 -0.2574 0 0.2574 0 0 0.2577 -0.5151 0m-1.2512 2.3918l0 -0.0368c-0.0204,0 -0.0369,0.0165 -0.0369,0.0368 0,0.0204 0.0165,0.0369 0.0369,0.0369 0.0203,0 0.0368,-0.0165 0.0368,-0.0369 0,-0.0203 -0.0165,-0.0368 -0.0368,-0.0368l0 0.0368zm0.2208 1.1777l-0.0736 -0.7728 -0.0368 -0.0737m5.5567 -10.782l0.2576 0 0 0.2577m-0.2576 -2.1344l0.2576 0 0 -0.2577m0 0.2577l0 1.8767 2.9439 0 0 -1.8767 -2.9439 0m-0.5888 3.0911l0.2576 0 0 -0.2577m0 2.2448l-0.2576 0m0.2576 -1.9871l0 1.9871 0 0.2577m0 -2.2448l3.2751 0 0 1.9871 -3.2751 0m2.8703 2.8703l0.2944 0m-2.1344 -0.9567l0.2576 0 0 -0.2576m1.9872 0.2576l-0.2208 0 0 -0.2576m-2.024 2.4655l0.2576 0 0 0.2575m1.9872 -0.2575l-0.2208 0 0 0.2575m-0.0369 -1.3614l-0.4047 -0.1841 0.0369 -0.0367 0.4047 0.1839m0.1104 -0.1104l0 0.2577 -1.104 0 0 -0.2577 0.6993 0m0.2943 0.2577l0 0.9935 -1.7664 0 0 -2.2079 1.7664 0 0 0.9567m0.2208 -2.0975l-2.2815 0 0 4.5998m-2.5391 -15.7867l4.8206 0m-7.1023 11.1869l-1.0302 0m1.0302 4.0847l-1.0302 0m-0.2577 3.3119l0.2577 0m9.1629 -1.7664l0 -17.8474m-1.0304 16.817l0 -15.7867m-7.1023 -1.0303l0 -6.3663m0 18.5835l0 -11.1869m0 15.7867l0 -0.5151m-1.0302 -4.0847l0 -17.5531m0 24.9497l0 -3.3119m3.3119 -16.3019l5.851 0m-5.851 1.0303l4.8206 0m-7.1023 15.7867l7.1023 0m-7.1023 1.0304l8.1327 0m-52.9904 10.9293l0 -9.1629m11.2387 5.9245l0 0.2577 0.2577 0"/>
  </g>
  <g>
   <path id="cocina" fill="none" fill-rule="nonzero" stroke="black" stroke-width="0.0762" stroke-miterlimit="22.9256" d="M87.2417 63.4112l-18.8778 0m0 -21.9321l4.523 0m0.0288 0l0 1.0303m-2.859 19.8714l4.5263 0m4.8574 0l-5.3725 0m-4.6736 -5.0046l0 -2.8703m16.1892 -0.2209l0 2.4655m0 -6.0718l0 2.4656m1.9503 1.104l0 2.5391m0.4416 -0.1473l-2.5391 0m2.4287 -2.3551l0 2.4655m-2.4287 -2.3918l2.4656 0m-0.3681 -3.68l0 2.5391m0.4416 -0.1472l-2.5023 0m2.3919 -2.3919l0 2.4656m-2.3919 -2.3552l2.4288 0m-1.6904 -0.8832l0 7.6174m-3.3121 1.8032l0 -9.4206 3.3121 0m-16.1548 5.0048l0 0.7359m0.6255 -0.6256l-0.6623 0m0.5888 -0.0368l0 0.6257m0.0369 -0.0737l-0.6624 0m1.5455 -0.6991l0 0.8095m0.6624 -0.6624l-0.7361 0m0.6624 -0.0735l0 0.7359m0.0369 -0.1104l-0.736 0m-1.3984 0.5888l0 0.8096m0.6623 -0.6992l-0.699 0m0.6624 -0.0368l0 0.6992m0 -0.0735l-0.6993 0m1.5824 -0.6624l0 0.699m0.5887 -0.5886l-0.6624 0m0.5889 -0.0369l0 0.6255m0.0368 -0.0735l-0.6257 0m1.1408 0.5151l-3.1279 0m2.9807 -2.9807l0 3.0911m-2.9807 -2.9438l3.1279 0m-2.9438 2.9438l0 -3.0911m0 0.1473l0 2.8334m2.7966 -14.7931l0 5.1519m-2.7599 2.9439l-0.2944 0m0.2944 -2.2815l-0.2944 0m0.1104 2.3919l0 -2.5023m0.0736 2.5023l0 -2.5023m3.3119 -0.552l-0.0736 0m0.0736 2.1342l-0.0736 0m0.0736 0.1104l-0.0736 0m0.0736 1.3617l-0.0736 0m0.0736 -1.4721l0 -2.3183m0 4.0112l0 -1.5825m-0.0736 -0.1104l0 -2.1342m0 3.6063l0 -1.3617m0.2577 1.3617l-3.5696 0m0 -3.6063l3.5696 0m-3.3488 3.8271l0 -4.0112m3.2384 2.0976l0 0.2207 -0.0737 0 0 -0.2207m0.0737 0l-0.0737 0m0 0.5888l0.0737 0 0 -0.2577 -0.0737 0m0 0.2577l0 -0.2577m4.3498 12.2577l0.3312 0m-0.3312 -0.9935l0.3312 0m0.0735 0.5151l-0.1839 0.4049m-0.0737 -0.0369l0.2207 -0.4047m-0.0735 -0.552l0 0.6991m-0.2208 0.4049l0 -1.104m0.2208 0.8095l0 0.2945m2.5023 -2.3921l0 1.9505m-1.2511 -1.9505l0 1.9136m-0.0737 -1.8767l1.472 0m-1.5087 1.8032l1.5087 0m-1.7663 -1.8401l0 1.9505m-2.7599 -1.9505l0 1.9136m-0.0369 -1.8767l2.8703 0m-0.9567 1.8032l0.9567 0m-2.8703 0l1.6928 0m-7.404 0.7323l15.7867 0m-13.2476 -3.0543l10.4508 0m-13.5051 -16.8171l3.4926 0m-0.4383 8.7582l0 8.0589m-3.0543 -16.8171l0 19.8714m-1.0304 -20.9017l0 21.9321m19.3563 -5.8879l0 1.0304m-18.3259 4.8575l-1.0304 0m0 -15.3083l-0.2575 0 0 0.5151 0.2575 0 0 -0.5151m2.0609 14.5355l-0.5153 0 0 0.5151 0.5153 0 0 -0.5151m15.2714 0.5151l-15.2714 0m14.7563 -0.2574l-14.7563 0m15.2714 -0.2577l-15.2714 0m17.2954 -4.3423l0.2576 0 0 -0.2575 0 0.2575 -0.2576 0 0 -0.5151m0.2576 0.5151l0.2575 0 0 4.0847 -0.2575 0 0 -4.0847m0 -0.2575l0.2575 0 0 -0.5153 -0.5151 0 0 0.5153m-0.4785 1.0303l0 4.3423 -1.5455 0 0 -1.0304 0.5153 0 0 -4.8575 1.0302 0m-1.5455 5.1151l-0.5151 0 0 0.5151 0.5151 0 0 -0.5151m-16.3019 -0.2576l0.5152 0 0 1.0304 -0.5152 0m17.8474 -5.8879l0.4785 0 0 1.5456 -0.4785 0m-17.185 4.3423l4.5263 0m2.723 -21.9321l9.9357 0 0 1.0303 -9.9357 0 0 -1.0303zm5.1753 1.0139l-1.5254 0m1.6819 0l-4.8497 0m0.5086 0l0 2.6986m0.4299 -2.6986l0 2.6986m0.4305 -2.6986l0 2.6986m0.4301 -2.6986l0 2.6986m0.4303 -2.6986l0 2.6986m0.4301 -2.6986l0 2.6986m0.4302 -2.6986l0 2.6986m0.4302 -2.6986l0 2.6986m0.4304 -2.6986l0 2.6986m0.4301 -2.6986l0 2.6986m0.4301 -2.6986l0 2.6986m0.0392 0l-4.8497 0m0 -2.6986l0 2.6986m8.4234 -2.6822l0 2.6822 -3.5737 0 -0.0392 -2.6986 3.6129 0.0164z"/>
  </g>
  <g>
   <path id="servicios" fill="none" fill-rule="nonzero" stroke="black" stroke-width="0.0762" stroke-miterlimit="22.9256" d="M81.354 15.8671l-0.2576 0 0 5.7406m-2.7968 -5.7406l3.0544 0 0 -0.2577 -3.0544 0m4.2688 18.4731l1.0302 0m-5.299 -12.622l0 -3.5696m3.5696 4.8943l0 2.208m-0.7728 -2.208l0 2.208m0 -2.208l0 2.208m-11.7021 -2.208l0 2.208m-1.0304 -2.208l0 2.208m1.0304 -2.208l0 2.208m-1.0304 3.2015l0 -3.7167m5.5198 -2.8703l0.6624 0m-0.6624 1.0303l0.6624 0m-2.2079 0l2.2079 0m-2.6126 11.4445l0 1.0303m-2.6864 0l2.6864 0m5.5933 -1.5087l0.5153 0 0 -0.2577 -0.2576 0 0 -0.2574 -0.4785 0 0 0.5151 0.4785 0m0 -3.827l0 0.2574 -0.4785 0 0 -0.5151 0.4785 0m3.7535 1.0304l0.0735 -0.5153m-0.1471 0.8465l0 -0.0368c-0.0203,0 -0.0368,0.0165 -0.0368,0.0368 0,0.0204 0.0165,0.0369 0.0368,0.0369 0.0204,0 0.0369,-0.0165 0.0369,-0.0369 0,-0.0203 -0.0165,-0.0368 -0.0369,-0.0368l0 0.0368zm-0.4049 0.8832l0.2577 -0.5153 0.0368 -0.0735m-0.5153 0.8463l0 -0.0369c-0.0203,0 -0.0368,0.0165 -0.0368,0.0369 0,0.0203 0.0165,0.0368 0.0368,0.0368 0.0204,0 0.0369,-0.0165 0.0369,-0.0368 0,-0.0204 -0.0165,-0.0369 -0.0369,-0.0369l0 0.0369zm-0.6623 0.6624l0.4784 -0.4048 0 -0.0368m-0.7728 0.6257l0 -0.0369c-0.0203,0 -0.0368,0.0165 -0.0368,0.0369 0,0.0203 0.0165,0.0368 0.0368,0.0368 0.0204,0 0.0369,-0.0165 0.0369,-0.0368 0,-0.0204 -0.0165,-0.0369 -0.0369,-0.0369l0 0.0369zm-0.8832 0.3678l0.0369 0 0.552 -0.2207m-0.92 0.2576l0 -0.0369c-0.0204,0 -0.0369,0.0166 -0.0369,0.0369 0,0.0203 0.0165,0.0369 0.0369,0.0369 0.0203,0 0.0368,-0.0166 0.0368,-0.0369 0,-0.0203 -0.0165,-0.0369 -0.0368,-0.0369l0 0.0369zm-0.8832 0.0735l0.5888 0m-0.3312 -3.5693l0 0.2574 3.5694 0 0 -0.2574 -3.5694 0m0 -0.2577l0 0.2577 -0.2576 0 0.2576 0 0 -0.2577 -0.5153 0m-5.3357 -0.2576l0 -0.5152 0.2575 0 0 0.2577 0.2576 0 0 0.5151 -0.5151 0 0 -0.5151m4.3422 0l-0.2575 0 0 0.5151 0.5151 0 0 -0.5151m-1.3616 -4.1215l0.0737 -0.0369 0.7728 -0.1839m-1.1408 0.368l0 -0.0368c-0.0204,0 -0.0369,0.0165 -0.0369,0.0368 0,0.0204 0.0165,0.0369 0.0369,0.0369 0.0203,0 0.0368,-0.0165 0.0368,-0.0369 0,-0.0203 -0.0165,-0.0368 -0.0368,-0.0368l0 0.0368zm-0.8464 0.4783l0.5152 -0.3312 0.0368 -0.0367m-0.8096 0.552l0 -0.0369c-0.0203,0 -0.0369,0.0165 -0.0369,0.0369 0,0.0203 0.0166,0.0368 0.0369,0.0368 0.0203,0 0.0369,-0.0165 0.0369,-0.0368 0,-0.0204 -0.0166,-0.0369 -0.0369,-0.0369l0 0.0369zm-0.6255 0.6991l0.1839 -0.2575 0.2208 -0.2208m-0.6255 0.7359l0 -0.0369c-0.0204,0 -0.0369,0.0166 -0.0369,0.0369 0,0.0203 0.0165,0.0369 0.0369,0.0369 0.0203,0 0.0368,-0.0166 0.0368,-0.0369 0,-0.0203 -0.0165,-0.0369 -0.0368,-0.0369l0 0.0369zm-0.4416 0.8832l0.0367 -0.0736 0.2576 -0.5153m-0.368 0.8832l0 -0.0368c-0.0204,0 -0.0369,0.0165 -0.0369,0.0368 0,0.0204 0.0165,0.0369 0.0369,0.0369 0.0203,0 0.0368,-0.0165 0.0368,-0.0369 0,-0.0203 -0.0165,-0.0368 -0.0368,-0.0368l0 0.0368zm-0.2208 1.1777l0.0737 -0.7728 0.0367 -0.0737m3.9743 0.5888l-0.2575 0 0 -4.0846 0.2575 0 0 4.0846m0.2576 0l-0.2576 0 0 0.2577 0 -0.2577 0.2576 0 0 0.5152m0.3312 -4.563l0.2577 0 0 -0.2576m0 2.2448l-0.2577 0m0.2577 -1.9872l0 1.9872 0 0.2574m3.5326 -0.2574l-0.2576 0 0 0.2574m-3.275 -2.2446l3.275 0 0 1.9872 -3.275 0m-5.6303 0.0735l-0.2576 0 0 0.2577m0.2576 -2.4656l-0.2576 0 0 -0.2577m-1.9872 0.2577l0.2577 0 0 -0.2577m-0.1473 1.5089l0 -0.2208 1.104 0 0 0.2208 -0.6992 0m-0.2575 -0.2208l0 -1.0304 1.7295 0 0 2.2079 -1.7295 0 0 -0.9567m2.4287 2.9438l0 -6.1086m6.3662 -12.5484l0 0.368m0.9935 0.6256l0 0.3312m-0.552 0.0735l-0.4047 -0.1839m0.0367 -0.0736l0.4049 0.2208m0.5887 -0.0737l-0.736 0m-0.4047 -1.2144l1.1407 0.9936m-0.8463 0.2208l-0.2944 -0.9567m2.3919 3.4591l-1.9503 0m1.9503 -1.2512l-1.9136 0m1.8767 -0.0735l0 1.4718m-1.803 -1.5087l0 1.5087m1.8399 -1.7663l-1.9503 0m1.9134 -3.0543l-1.9503 0m1.9503 0.2577l0 2.8703m-1.803 -0.9569l0 0.9569m0 -2.8703l0 1.6926m-1.7297 11.4813l3.7904 0m-3.0543 -7.6541l0 -0.2576 -0.5153 0 0 0.2576 0.5153 0m-4.048 6.8813l-0.2574 0 0 0.5153 0.2574 0 0 -0.5153m-0.2574 0.7728l3.5693 0m0 -1.0303l-3.5693 0m3.5693 0.2575l-0.2574 0 0 0.5153 0.2574 0 0 -0.5153m-0.2574 0.2576l-3.0545 0m3.0545 0.2577l-3.0545 0m3.0545 -0.5153l-3.0545 0m3.3119 -6.8813l0 7.6541m0.9936 -7.6541l0 6.6238m0 -6.6238l-0.9936 0m-8.9421 6.6238l5.3728 0m-4.3424 7.1389l2.7968 0m4.5998 0.7728l5.0783 0m-8.1325 -7.9117l0 1.0303m3.0542 6.1086l0 0.7728m4.3055 -6.8814l0 6.1086m0.7728 -7.1389l0 7.9117m-12.4749 0l0 4.5631m0 -0.0737l2.5392 0m-2.5392 -0.4047l2.5392 0m-2.5392 -0.4047l2.5392 0m-2.5392 -0.4049l2.5392 0m-2.5392 -0.4048l2.5392 0m-2.5392 -0.4047l2.5392 0m-2.5392 -0.4049l2.5392 0m-2.5392 -0.4047l2.5392 0m-2.5392 -0.4048l2.5392 0m-2.5392 -0.4049l2.5392 0m-2.5392 -0.4047l2.5392 0m-2.5392 -0.4047l2.5392 0m-2.5392 -6.9183l0 6.1086m-1.0304 -7.1389l0 13.5051m9.9357 -13.5051l3.5696 0m-9.9357 7.9117l0 4.5631m4.8574 -5.3359l4.3055 0m-8.9053 0l0 0.7728m5.851 4.5631l0 -0.4049 -0.7361 0 0 1.4352m-7.9117 -5.5934l2.7968 0m-2.7968 -6.8814l4.3424 0m-4.3424 11.4445l2.5392 0m-3.5696 1.0303l3.5696 0m17.5899 -29.5495l0 23.9561m0 0l1.0302 0m-12.5115 4.5631l11.4813 0m-12.2174 1.0303l14.3149 0m-1.0673 -30.5799l0 24.9865m0 4.0847l0 0.5151m-9.1996 -25.5016l0 12.9901m9.1996 11.9964l-1.0302 0m0 0l0 0.4784m-8.1694 -25.4649l8.1694 0m-11.2238 6.3663l0 -9.4206m-0.2575 9.163l0 -9.4206m-0.7361 9.6782l0 -10.451m0.4785 10.1934l0 -9.4206m-0.2577 9.4206l0 -9.4206m11.9966 28.2984l0 -0.2577 0.2575 0 -0.2575 0 0 0.2577 0.5151 0m-0.5151 -0.2577l0 -0.2574 -3.5696 0 0 0.2574 3.5696 0m0.2575 -3.5693l-0.552 0m-0.3312 0.0367l0 -0.0369c-0.0204,0 -0.0369,0.0165 -0.0369,0.0369 0,0.0203 0.0165,0.0368 0.0369,0.0368 0.0203,0 0.0368,-0.0165 0.0368,-0.0368 0,-0.0204 -0.0165,-0.0369 -0.0368,-0.0369l0 0.0369zm-0.3312 0.0368l-0.0367 0.0369 -0.552 0.1839m-0.2945 0.1839l0 -0.0368c-0.0203,0 -0.0368,0.0165 -0.0368,0.0368 0,0.0204 0.0165,0.0369 0.0368,0.0369 0.0204,0 0.0369,-0.0165 0.0369,-0.0369 0,-0.0203 -0.0165,-0.0368 -0.0369,-0.0368l0 0.0368zm-0.2574 0.1473l-0.0369 0 -0.4416 0.4416 -0.0368 0m-0.184 0.2576l0 -0.0368c-0.0203,0 -0.0368,0.0165 -0.0368,0.0368 0,0.0204 0.0165,0.0369 0.0368,0.0369 0.0204,0 0.0369,-0.0165 0.0369,-0.0369 0,-0.0203 -0.0165,-0.0368 -0.0369,-0.0368l0 0.0368zm-0.2208 0.2575l-0.2576 0.5153 -0.0367 0.0367m-0.0737 0.2945l0 -0.0369c-0.0204,0 -0.0369,0.0166 -0.0369,0.0369 0,0.0203 0.0165,0.0369 0.0369,0.0369 0.0203,0 0.0368,-0.0166 0.0368,-0.0369 0,-0.0203 -0.0165,-0.0369 -0.0368,-0.0369l0 0.0369zm-0.1104 0.3312l-0.0736 0.552m3.8271 0.2574l0 -0.2574 0.5153 0 0 0.5151 -0.5153 0m0.2576 -4.0847l-0.5151 0 0 0.2577 0.2575 0 0 0.2574 0.5153 0 0 -0.5151 -0.5153 0m-3.4223 5.5934l3.7168 0m-0.552 -29.5495l-8.1694 0 0 -1.0304 9.1996 0m-1.1775 1.0304l-2.7967 0m2.7967 28.5192l-2.7967 0m3.9742 0.0367l1.0673 0 0 0.9936m-2.0975 -13.6523l0 -3.5696m-8.1694 -13.358l-4.048 0m0.9936 1.0304l3.0544 0 0 -1.0304m-3.3119 0.2577l0 0.5151 -0.5153 0 0 -0.5151 0.5153 0 3.3119 0m-0.2576 0.2576l-3.0543 0m3.3119 0.2575l-3.3119 0m3.3119 -0.5151l-0.2576 0 0 0.5151 0.2576 0 0 -0.5151m5.0046 0.92l3.0544 0 0 3.0542 -3.0544 0 0 -3.0542"/>
  </g>
  <g>
   <path id="entradaPrincipal" fill="none" fill-rule="nonzero" stroke="black" stroke-width="0.0762" stroke-miterlimit="22.9256" d="M55.7787 28.489l2.576 0m-2.576 0l2.576 0m-2.576 1.0304l2.576 0m11.0396 0.1473l0 1.4351m-13.6156 -1.5824l2.576 0m-3.4959 0.3312l-0.2576 0 0 0.2577m0.2576 -2.1344l-0.2576 0 0 -0.2577m0.2576 3.3488l-0.2576 0 0 -0.2577m0.2576 2.2448l-0.2576 0 0 0.2577m6.3661 -4.5816c0,-0.0711 -0.0577,-0.1288 -0.1288,-0.1288 -0.0711,0 -0.1286,0.0577 -0.1286,0.1288 0,0.0711 0.0575,0.1288 0.1286,0.1288 0.0711,0 0.1288,-0.0577 0.1288,-0.1288m-1.4351 -0.8279l-0.0736 0.0736 -0.1472 0.368 -0.1104 0.4047m0.5153 -1.1039l0 -0.0369c-0.0204,0 -0.0369,0.0165 -0.0369,0.0369 0,0.0203 0.0165,0.0368 0.0369,0.0368 0.0203,0 0.0368,-0.0165 0.0368,-0.0368 0,-0.0204 -0.0165,-0.0369 -0.0368,-0.0369l0 0.0369zm0.2208 -0.2208l0.0735 -0.0736 0.3312 -0.2208 0.4047 -0.1472 0.2208 0 0 1.7663 -0.2208 0 0 -1.7663m3.9376 2.3552l0.0367 -0.0737 0.0737 -0.7728m-0.1841 1.1777l0 -0.0369c-0.0203,0 -0.0368,0.0165 -0.0368,0.0369 0,0.0203 0.0165,0.0368 0.0368,0.0368 0.0204,0 0.0369,-0.0165 0.0369,-0.0368 0,-0.0204 -0.0165,-0.0369 -0.0369,-0.0369l0 0.0369zm-0.3679 0.8831l0.2575 -0.5153 0 -0.0735m-0.4416 0.8463l0 -0.0368c-0.0203,0 -0.0368,0.0165 -0.0368,0.0368 0,0.0204 0.0165,0.0369 0.0368,0.0369 0.0204,0 0.0369,-0.0165 0.0369,-0.0369 0,-0.0203 -0.0165,-0.0368 -0.0369,-0.0368l0 0.0368zm-0.6255 0.7728l0.2577 -0.2208 0.1839 -0.2575m-0.6624 0.6991l0 -0.0369c-0.0203,0 -0.0368,0.0165 -0.0368,0.0369 0,0.0203 0.0165,0.0368 0.0368,0.0368 0.0204,0 0.0369,-0.0165 0.0369,-0.0368 0,-0.0204 -0.0165,-0.0369 -0.0369,-0.0369l0 0.0369zm-0.8096 0.552l0.0737 -0.0367 0.4783 -0.3312m-0.8463 0.4783l0 -0.0369c-0.0204,0 -0.0369,0.0165 -0.0369,0.0369 0,0.0203 0.0165,0.0368 0.0369,0.0368 0.0203,0 0.0368,-0.0165 0.0368,-0.0368 0,-0.0204 -0.0165,-0.0369 -0.0368,-0.0369l0 0.0369zm-1.1409 0.368l0.7728 -0.1839 0.0737 -0.0369m-1.0673 -3.8639l0.2208 0 0 4.0847 -0.2208 0 0 -4.0847m9.163 -2.9438l-0.2944 0m-0.1104 0.9567l0.2577 0 0 0.2577m0 -1.3248l0.4047 0.1839 -0.0368 0.0369 -0.4048 -0.1841m-10.782 3.5327l0.2575 0 0 -0.5152 -0.2575 0 0 0.5152m5.851 0l0 -0.5152 0.2575 0 0 0.5152 -0.2575 0 0 -0.5152 0 0.5152m-5.5935 -0.5152l0 0.5152m-0.2575 -0.5152l0 0.5152m0.2575 0l0 -0.5152m5.5935 0.5152l0 -0.5152 0 0.5152m0 -0.7728l0 1.0304m-5.5935 -1.0304l0 1.0304m5.5935 -1.0304l0 1.0304m-8.9054 -0.7728l-0.2575 0 0 0.5152 0.2575 0 0 -0.5152m12.4748 0l-0.2575 0 0 0.5152 0.2575 0 0 -0.5152m-9.4204 0.5152l-3.3119 0m12.4748 0l-3.0544 0m-6.1085 -0.2575l-3.0544 0m12.2173 0l-3.0544 0m-6.1085 -0.2577l-3.3119 0m12.4748 0l-3.0544 0m-9.4204 0.7728l3.5694 0m0 -1.0304l-3.5694 0m9.1629 1.0304l3.5694 0m0 -1.0304l-3.5694 0"/>
  </g>
  <g>
   <path id="entarada" fill="none" fill-rule="nonzero" stroke="black" stroke-width="0.0762" stroke-miterlimit="22.9256" d="M58.0235 22.3805l-1.2144 0m2.7599 0l-1.2512 0m2.7599 0l-1.2143 0m2.7599 0l-1.2144 0m2.7233 0l-1.2144 0m2.7599 0l-1.2144 0m2.7231 0l-1.2144 0m2.3919 0l-0.8463 0"/>
  </g>
  <g>
   <path id="terraza" fill="none" fill-rule="nonzero" stroke="black" stroke-width="0.0762" stroke-miterlimit="22.9256" d="M85.6962 70.035l1.7297 0m0.4047 0l1.7295 0m0.4416 0l1.6928 0m0.4416 0l1.6928 0m0.4415 0l1.6927 0m0.4416 0l1.7296 0m0.4048 0l1.7294 0m0.405 0l1.7294 0m0.4416 0l1.6928 0m0.4416 0l1.6927 0m0.4415 0l1.6928 0m0.4416 0l1.7295 0m0.4049 0l1.7295 0m0.4048 0l1.7296 0m0.4416 0l1.6926 0m-31.6838 -6.6238l0 1.8767m0 0.4416l0 1.6928m0 0.4416l0 1.9134m6.6238 -12.254l0 1.0304m25.4649 -0.5151l0 -0.0368c-0.0203,0 -0.0368,0.0165 -0.0368,0.0368 0,0.0204 0.0165,0.0369 0.0368,0.0369 0.0204,0 0.0369,-0.0165 0.0369,-0.0369 0,-0.0203 -0.0165,-0.0368 -0.0369,-0.0368l0 0.0368zm0 1.0303l1.0303 0m-0.2575 9.9357l-0.5153 0 0 0.5153 0.5153 0 0 -0.5153m0 -9.7516l0 9.7516m-0.2576 -9.6781l0 9.6781m-0.2577 -9.7516l0 9.7516m0.7728 -9.9357l0 9.6782m-1.0303 1.0302l0 -10.7084m0.7728 0l0 0.2576 -0.5153 0 0 -0.2576 0.5153 0m-6.1087 -1.2879l-19.8714 0m19.8714 0.2576l-19.8714 0m19.8714 0.2575l-19.8714 0m20.1291 -0.5151l-0.2577 0 0 0.5151 0.2577 0 0 -0.5151m-20.3867 0l0.2576 0 0 0.5151 -0.2576 0 0 -0.5151m20.3867 -0.2577l-20.3867 0m0 1.0304l20.3867 0 0 -1.0304m-20.6442 0.5153l-0.0737 0.7728 -0.0367 0.1104m-0.0737 0.2943l0 -0.0368c-0.0203,0 -0.0369,0.0165 -0.0369,0.0368 0,0.0204 0.0166,0.0369 0.0369,0.0369 0.0203,0 0.0369,-0.0165 0.0369,-0.0369 0,-0.0203 -0.0166,-0.0368 -0.0369,-0.0368l0 0.0368zm-0.1104 0.2944l0 0.0737 -0.2943 0.5151m-0.1473 0.2943l0 -0.0368c-0.0203,0 -0.0368,0.0165 -0.0368,0.0368 0,0.0204 0.0165,0.0369 0.0368,0.0369 0.0204,0 0.0369,-0.0165 0.0369,-0.0369 0,-0.0203 -0.0165,-0.0368 -0.0369,-0.0368l0 0.0368zm-0.1839 0.2577l-0.2208 0.2576 -0.2208 0.2208m-0.2208 0.2208l0 -0.0368c-0.0203,0 -0.0369,0.0165 -0.0369,0.0368 0,0.0204 0.0166,0.0369 0.0369,0.0369 0.0203,0 0.0369,-0.0165 0.0369,-0.0369 0,-0.0203 -0.0166,-0.0368 -0.0369,-0.0368l0 0.0368zm-0.2576 0.184l-0.5152 0.3311 -0.0368 0.0369m-0.2944 0.1104l0 -0.0369c-0.0203,0 -0.0368,0.0166 -0.0368,0.0369 0,0.0203 0.0165,0.0369 0.0368,0.0369 0.0204,0 0.0369,-0.0166 0.0369,-0.0369 0,-0.0203 -0.0165,-0.0369 -0.0369,-0.0369l0 0.0369zm-0.2943 0.1471l-0.0737 0.0368 -0.7728 0.184m4.0847 -4.5998l0 0.5151 -0.2575 0 0 -0.2575 -0.2576 0 0 -0.5153 0.5151 0 0 0.5153m24.9865 0.2575l-0.2577 0 0 -0.2575 0 0.2575 0.2577 0 0 -0.5151m-0.2577 0.5151l-0.2574 0 0 4.0847 0.2574 0 0 -4.0847m-4.0846 -0.2575l0.0737 0.7728 0.0367 0.1104m0.0737 0.2943l0 -0.0368c-0.0204,0 -0.0369,0.0165 -0.0369,0.0368 0,0.0204 0.0165,0.0369 0.0369,0.0369 0.0203,0 0.0368,-0.0165 0.0368,-0.0369 0,-0.0203 -0.0165,-0.0368 -0.0368,-0.0368l0 0.0368zm0.1104 0.2944l0 0.0737 0.2943 0.5151m0.1473 0.2943l0 -0.0368c-0.0204,0 -0.0369,0.0165 -0.0369,0.0368 0,0.0204 0.0165,0.0369 0.0369,0.0369 0.0203,0 0.0368,-0.0165 0.0368,-0.0369 0,-0.0203 -0.0165,-0.0368 -0.0368,-0.0368l0 0.0368zm0.1839 0.2577l0.1839 0.2576 0.2577 0.2208m0.2208 0.2208l0 -0.0368c-0.0204,0 -0.0369,0.0165 -0.0369,0.0368 0,0.0204 0.0165,0.0369 0.0369,0.0369 0.0203,0 0.0368,-0.0165 0.0368,-0.0369 0,-0.0203 -0.0165,-0.0368 -0.0368,-0.0368l0 0.0368zm0.2576 0.184l0.5152 0.3311 0.0368 0.0369m0.2943 0.1104l0 -0.0369c-0.0203,0 -0.0368,0.0166 -0.0368,0.0369 0,0.0203 0.0165,0.0369 0.0368,0.0369 0.0204,0 0.0369,-0.0166 0.0369,-0.0369 0,-0.0203 -0.0165,-0.0369 -0.0369,-0.0369l0 0.0369zm0.2944 0.1471l0.0737 0.0368 0.7728 0.184m0.2574 -4.3422l-0.2574 0 0 -0.5153 0.5151 0 0 0.5153m-4.5998 -0.2576l0 0.5151 0.2575 0 0 -0.2575 0.2576 0 0 -0.5153 -0.5151 0 0 0.5153m5.0782 10.7085l-1.288 0m-0.4048 0l-1.7295 0m-0.4049 0l-1.7295 0m-0.4415 0l-1.6928 0m-0.4416 0l-1.6927 0m-0.4416 0l-1.6928 0m-0.4415 0l-1.7295 0m-0.4049 0l-1.7295 0m-0.4048 0l-1.7296 0m-0.4416 0l-1.6926 0m-0.4416 0l-1.6928 0m-0.4416 0l-1.6928 0m-0.4416 0l-1.7295 0m-0.4047 0l-1.7297 0m-0.4047 0l-1.2879 0 0 -1.3985m0 -0.4416l0 -1.6926m0 -0.4416l0 -1.3616m0.4047 6.6238l2.6864 0m28.7398 -10.9661l0 -1.0303m-1.0303 0l0 -0.0368c-0.0203,0 -0.0368,0.0165 -0.0368,0.0368 0,0.0204 0.0165,0.0369 0.0368,0.0369 0.0204,0 0.0369,-0.0165 0.0369,-0.0369 0,-0.0203 -0.0165,-0.0368 -0.0369,-0.0368l0 0.0368zm0 1.0303l1.0303 0m-1.0303 0l-0.4784 0 0 -1.5456 0.4784 0m1.0303 0.5153l0 -1.0304 -1.0303 0 0 0.5151m0 6.0352l0 2.8334"/>
  </g>
  <g>
   <path id="comedorP" fill="none" fill-rule="nonzero" stroke="black" stroke-width="0.0762" stroke-miterlimit="22.9256" d="M105.126 50.6787l-2.5023 0m2.3919 -4.7837l-2.4654 0m2.3919 6.7342l-2.3184 0m0.0736 0.4416l-0.0367 -2.576m2.4654 2.4656l-2.5023 0m2.3184 -2.4656l0 2.576m0.1104 -9.163l-2.5392 0m0.1104 -0.4049l0 2.5025m2.3919 -2.3921l-2.4654 0m2.355 2.3921l0 -2.4287m-8.4637 5.9614l0 -2.6129m-1.9503 2.4288l0 -2.3551m-0.4415 0.0736l2.5758 0m-2.4655 2.4656l0 -2.6129m2.4655 2.4288l-2.5758 0m14.6827 0.1841l0 -2.6129m1.9503 2.4288l0.0369 -2.3551m0.4047 0.0736l-2.576 0m2.4656 2.4656l0 -2.6129m-2.4656 2.4288l2.576 0m-15.5291 1.3616l0 -5.483m3.5694 5.4461l-2.5023 0m5.483 0l-2.5023 0m8.6845 0l-2.6495 0m-6.6238 -4.7837l-2.4654 0m5.4461 0l-2.4654 0m8.6109 0l-2.4656 0m-6.7342 6.7342l-2.3183 0m0.0369 0.4416l0 -2.576m2.4654 2.4656l-2.5023 0m2.3183 -2.4656l0 2.576m0.0736 -9.163l-2.5391 0.0367m0.1472 -0.4416l0 2.5025m2.3919 -2.3921l-2.4654 0m2.355 2.3921l0 -2.4287m3.0176 9.0525l-2.3184 0m0.0369 0.4416l0 -2.576m2.4654 2.4656l-2.5023 0m2.3184 -2.4656l0 2.576m0.0735 -9.163l-2.5391 0m0.1472 -0.4049l0 2.5025m2.3919 -2.3921l-2.4654 0m2.355 2.3921l0 -2.4287m6.1822 9.0525l-2.355 0m0.0735 0.4416l0 -2.576m2.5023 2.4656l-2.6495 0m2.4287 -2.4656l0 2.576m0.1104 -9.163l-2.5391 0m0.1472 -0.4049l0 2.5025m2.3552 -2.3921l-2.4656 0m2.3919 2.3921l0 -2.4656m1.2512 7.8013l0 -6.1085m-13.7627 6.1085l0 -5.0782m14.0204 4.8207l-14.278 0m0.0368 -5.5935l14.2412 0"/>
  </g>
  <g>
   <path id="entradaCochera" fill="none" fill-rule="nonzero" stroke="black" stroke-width="0.0762" stroke-miterlimit="22.9256" d="M140.2321 1.4787l-1.5455 0 0 5.1151 1.5455 0 0 -5.1151m0 11.2236l0 -1.7295m0 -0.4416l0 -1.6928m0 -0.4416l0 -1.6926m0 -0.4416l0 -1.7297m-1.0302 8.0958l0 -1.6928m0 -0.4416l0 -1.6926m0 -0.4416l0 -1.7663m1.2879 -5.1151l-1.5087 0m1.5087 1.0304l-0.2577 0m-53.5055 2.0238l0 -2.0238"/>
  </g>
  <g>
   <path fill="none" fill-rule="nonzero" stroke="black" stroke-width="0.0762" stroke-miterlimit="22.9256" d="M136.6628 70.035l-50.9666 0 0 -6.6238m54.7936 -33.7445l0 1.4351m-3.827 37.4612l-0.0369 0.0368 0.3681 0.2944 -0.3312 -0.3312m-0.0369 0.0368l0.3681 0.2944 -0.0369 0.0368 -0.3312 -0.3312m0.0369 -0.0368l-0.0369 0.0368 0.3681 0.2944 -0.3312 -0.3312zm-0.0369 0.0368l0.3681 0.2944 -0.0369 0.0368 -0.3312 -0.3312zm1.1408 0.1473l-1.2143 0m-18.7675 -33.4871l0 1.3248m-62.0062 11.2605l2.576 0m80.6999 -13.7628l-3.827 0m-49.5314 -30.8375l0 1.2879m31.5368 31.1687l0 -0.2576 0.5151 0m0.0368 0.0737l0 5.7582 -0.2576 0 0 -5.7582 0.2576 0m-0.2576 0l0 5.7582 -0.2208 0 0 -5.7582 0.2208 0m22.9625 15.3818l0 -49.4208m-3.827 68.2986l0 0.2577 3.5693 0 0.2577 0 0 -10.9661m-1.2879 10.7084l-2.5391 0 0 -1.0302 2.5391 0m-0.6624 -67.2684l-1.6928 0m-0.4416 0l-1.6928 0m-0.4416 0l-1.6926 0m-0.4416 0l-1.7297 0m-0.4047 0l-1.7295 0m-0.4049 0l-1.7295 0m-0.4416 0l-1.6928 0m-0.4416 0l-1.6926 0m-0.4416 0l-1.6928 0m-0.4416 0l-1.7295 0m-0.4049 0l-1.7294 0m-0.4048 0l-1.7296 0m-0.4416 0l-1.6927 0m-0.4415 0l-1.6929 0m-0.4415 0l-1.6929 0m-0.4415 0l-1.7295 0m-0.4048 0l-1.7296 0m-0.4048 0l-1.7294 0m-0.4049 0l-1.7295 0m-0.4416 0l-1.6928 0m-0.4416 0l-1.6926 0m-0.4416 0l-1.6928 0m-0.4416 0l-1.7295 0m-0.4049 0l-1.7295 0m-0.4047 0l-1.5089 0m52.9904 1.0304l-1.1407 0m-0.4415 0l-1.7297 0m-0.4047 0l-1.7295 0m-0.4049 0l-1.7295 0m-0.4416 0l-1.6928 0m-0.4416 0l-1.6926 0m-0.4416 0l-1.6928 0m-0.4416 0l-1.7295 0m-0.4049 0l-1.7295 0m-0.4047 0l-1.7297 0m-0.4416 0l-1.6926 0m-0.4416 0l-1.6928 0m-0.4416 0l-1.6928 0m-0.4416 0l-1.7295 0m-0.4047 0l-1.7297 0m-0.4047 0l-1.7295 0m-0.4049 0l-1.7295 0m-0.4416 0l-1.6928 0m-0.4416 0l-1.6926 0m-0.4416 0l-1.6928 0m-0.4416 0l-1.7295 0m-0.4049 0l-1.7295 0m-0.4047 0l-1.7297 0m-0.4415 0l-1.6927 0m-0.4416 0l-1.1408 0m-1.0304 -1.0304l0 1.3247m53.3584 -1.3247l-3.827 0m3.9743 13.2844l0 -1.6928m0 3.827l0 -1.6926m0 3.8639l0 -1.7297m0 3.8639l0 -1.7295m0 3.8639l0 -1.7295m0 3.8639l0 -1.6928m0 3.827l0 -1.6926m0 3.827l0 -1.6928m0 3.8639l0 -1.7295m0 3.9007l0 -1.7663m1.0302 -17.4795l0 -1.7295m0 3.8639l0 -1.7297m0 3.8639l0 -1.6927m0 3.8271l0 -1.6928m0 3.8272l0 -1.6928m0 3.827l0 -1.6927m0 3.8639l0 -1.7296m0 3.8639l0 -1.7295m0 3.8638l0 -1.7294m0 3.8638l0 -1.6928m-3.5693 36.6149l-18.1051 0m17.8474 0l0.2577 0 0 0.5153 -0.2577 0 0 -0.5153m2.7968 -0.2575l0 -9.6782 1.0302 0 0 10.7084 -1.0302 0m-24.6553 -35.6948l4.2686 0 0 4.0847m-64.3613 14.7932l0 -3.5696m-0.4047 3.5696l0 -3.5696m-0.4047 3.5696l0 -3.5696m-0.4049 3.5696l0 -3.5696m-0.4048 3.5696l0 -3.5696m-0.4047 3.5696l0 -3.5696m-0.4049 3.5696l0 -3.5696m-0.4047 3.5696l0 -3.5696m-0.4048 3.5696l0 -3.5696m-0.4049 3.5696l0 -3.5696m-0.4047 3.5696l0 -3.5696m-0.4047 3.5696l0 -3.5696m-0.4049 3.5696l0 -3.5696m-0.4048 3.5696l0 -3.5696m-0.4047 3.5696l0 -3.5696m-0.4049 3.5696l0 -3.5696m-0.4047 3.5696l0 -3.5696m-0.4048 3.5696l0 -3.5696m-0.4049 3.5696l0 -3.5696"/>
  </g>
  <g>
   <path id="ampliacionSemicubierto" fill="none" fill-rule="nonzero" stroke="black" stroke-width="0.0762" stroke-miterlimit="22.9256" d="M106.972 14.7755l0 2.5022m-4.7838 -2.3918l0 2.4654m6.7342 -2.3919l0 2.3183m0.4416 -0.0735l-2.576 0.0367m2.4656 -2.4654l0 2.5022m-2.4656 -2.3183l2.576 0m-9.1629 -0.1104l0 2.5391m-0.4049 -0.1104l2.5024 0m-2.392 -2.3918l0 2.4654m2.392 -2.355l-2.4287 0m5.9614 8.4636l-2.6128 0m2.4287 1.9503l-2.355 0m0.0735 0.4416l0 -2.5758m2.4656 2.4654l-2.6128 0m2.4287 -2.4654l0 2.5758m0.1841 -14.6827l-2.6128 0m2.4287 -1.9503l-2.355 -0.0369m0.0735 -0.4047l0 2.576m2.4656 -2.4656l-2.6128 0m2.4287 2.4656l0 -2.576m1.3616 15.5291l-5.4829 0m5.4461 -3.5694l0 2.5022m0 -5.4829l0 2.5022m0 -8.6844l0 2.6495m-4.7838 6.6238l0 2.4654m0 -5.4461l0 2.4654m0 -8.611l0 2.4656m6.7342 6.7342l0 2.3183m0.4416 -0.0368l-2.576 0m2.4656 -2.4654l0 2.5022m-2.4656 -2.3183l2.576 0m-9.1629 -0.0735l0.0367 2.5391m-0.4416 -0.1473l2.5024 0m-2.392 -2.3918l0 2.4654m2.392 -2.355l-2.4287 0m9.0525 -3.0176l0 2.3183m0.4416 -0.0368l-2.576 0m2.4656 -2.4654l0 2.5022m-2.4656 -2.3183l2.576 0m-9.1629 -0.0735l0 2.5391m-0.4049 -0.1473l2.5024 0m-2.392 -2.3918l0 2.4654m2.392 -2.355l-2.4287 0m9.0525 -6.1822l0 2.355m0.4416 -0.0736l-2.576 0m2.4656 -2.5022l0 2.6495m-2.4656 -2.4287l2.576 0m-9.1629 -0.1104l0 2.5391m-0.4049 -0.1473l2.5024 0m-2.392 -2.3552l0 2.4656m2.392 -2.3918l-2.4656 0m7.8014 -1.2513l-6.1085 0m6.1085 13.7628l-5.0783 0m4.8208 -14.0204l0 14.278m-5.5936 -0.0368l0 -14.2412m23.2816 4.4896l0 2.5022m-4.7838 -2.3918l0 2.4654m6.7342 -2.3919l0 2.3183m0.4416 -0.0735l-2.576 0.0367m2.4656 -2.4654l0 2.5022m-2.4656 -2.3183l2.576 0m-9.1629 -0.1104l0 2.5391m-0.4049 -0.1104l2.5024 0m-2.392 -2.3918l0 2.4654m2.392 -2.355l-2.4287 0m5.9614 8.4636l-2.6128 0m2.4287 1.9503l-2.355 0m0.0735 0.4416l0 -2.5758m2.4656 2.4654l-2.6128 0m2.4287 -2.4654l0 2.5758m0.1841 -14.6827l-2.6128 0m2.4287 -1.9503l-2.355 -0.0369m0.0735 -0.4047l0 2.576m2.4656 -2.4656l-2.6128 0m2.4287 2.4656l0 -2.576m1.3616 15.5291l-5.483 0m5.4462 -3.5694l0 2.5022m0 -5.4829l0 2.5022m0 -8.6844l0 2.6495m-4.7838 6.6238l0 2.4654m0 -5.4461l0 2.4654m0 -8.611l0 2.4656m6.7342 6.7342l0 2.3183m0.4416 -0.0368l-2.576 0m2.4656 -2.4654l0 2.5022m-2.4656 -2.3183l2.576 0m-9.1629 -0.0735l0.0367 2.5391m-0.4416 -0.1473l2.5024 0m-2.392 -2.3918l0 2.4654m2.392 -2.355l-2.4287 0m9.0525 -3.0176l0 2.3183m0.4416 -0.0368l-2.576 0m2.4656 -2.4654l0 2.5022m-2.4656 -2.3183l2.576 0m-9.1629 -0.0735l0 2.5391m-0.4049 -0.1473l2.5024 0m-2.392 -2.3918l0 2.4654m2.392 -2.355l-2.4287 0m9.0525 -6.1822l0 2.355m0.4416 -0.0736l-2.576 0m2.4656 -2.5022l0 2.6495m-2.4656 -2.4287l2.576 0m-9.1629 -0.1104l0 2.5391m-0.4049 -0.1473l2.5024 0m-2.392 -2.3552l0 2.4656m2.392 -2.3918l-2.4656 0m7.8013 -1.2513l-6.1085 0m6.1085 13.7628l-5.0782 0m4.8208 -14.0204l0 14.278m-5.5936 -0.0368l0 -14.2412"/>
  </g>
 </g>
</svg>
